<?xml version="1.0" encoding="UTF-8" standalone="no"?><!DOCTYPE svg PUBLIC "-//W3C//DTD SVG 1.1//EN" "http://www.w3.org/Graphics/SVG/1.1/DTD/svg11.dtd"><svg width="100%" height="100%" viewBox="0 0 522 312" version="1.1" xmlns="http://www.w3.org/2000/svg" xmlns:xlink="http://www.w3.org/1999/xlink" xml:space="preserve" xmlns:serif="http://www.serif.com/" style="fill-rule:evenodd;clip-rule:evenodd;stroke-linejoin:round;stroke-miterlimit:2;"><rect id="Artboard1" x="0" y="0" width="521.503" height="311.984" style="fill:#fff;fill-opacity:0;"/><clipPath id="_clip1"><rect id="Artboard11" serif:id="Artboard1" x="0" y="0" width="521.503" height="311.984"/></clipPath><g clip-path="url(#_clip1)"><path d="M148.212,-413.265c-21.235,-3.826 -42.704,-6.216 -64.26,-7.152l-18.795,432.553c-6.096,-0.265 -12.185,0.661 -17.926,2.727l-146.566,-407.399c-20.303,7.304 -40.09,15.969 -59.227,25.936l200,384c-5.411,2.818 -10.221,6.665 -14.16,11.324l-330.63,-279.535c-13.93,16.477 -26.734,33.874 -38.324,52.075l365.205,232.553c-3.277,5.147 -5.519,10.883 -6.601,16.888l-426.101,-76.77c-3.826,21.235 -6.215,42.703 -7.152,64.26l432.553,18.795c-0.264,6.095 0.662,12.184 2.727,17.925l-407.399,146.566c7.304,20.303 15.969,40.09 25.936,59.227l384,-200c2.818,5.412 6.665,10.222 11.324,14.161l-279.535,330.629c16.477,13.931 33.875,26.735 52.075,38.324l232.553,-365.205c5.147,3.277 10.883,5.52 16.888,6.602l-76.77,426.101c21.235,3.825 42.704,6.215 64.26,7.151l18.795,-432.553c6.096,0.265 12.185,-0.661 17.926,-2.727l146.565,407.4c20.303,-7.305 40.091,-15.97 59.227,-25.937l-200,-383.999c5.412,-2.819 10.222,-6.666 14.161,-11.325l330.63,279.536c13.93,-16.478 26.734,-33.875 38.323,-52.076l-365.205,-232.553c3.278,-5.147 5.52,-10.883 6.602,-16.888l426.101,76.771c3.826,-21.235 6.215,-42.704 7.152,-64.261l-432.554,-18.794c0.265,-6.096 -0.661,-12.185 -2.726,-17.926l407.399,-146.566c-7.304,-20.303 -15.969,-40.09 -25.936,-59.227l-384,200c-2.819,-5.411 -6.665,-10.221 -11.325,-14.161l279.536,-330.629c-16.477,-13.931 -33.875,-26.735 -52.075,-38.324l-232.554,365.205c-5.146,-3.277 -10.883,-5.52 -16.887,-6.601l76.77,-426.101Z" style="fill:url(#_Radial2);"/><circle cx="63.119" cy="59.027" r="51.761" style="fill:#ffcf00;"/><path d="M205.951,187.887l-34.111,0c-5.139,-7.511 -9.772,-13.79 -13.899,-18.836c-4.128,-5.047 -9.408,-11.383 -15.842,-19.01l-3.156,-0l-0,25.77c-0,1.387 0.263,2.561 0.789,3.525c0.526,0.963 1.578,1.771 3.156,2.426c0.728,0.308 1.811,0.617 3.247,0.925c1.437,0.308 2.863,0.539 4.279,0.693l0,4.507l-45.765,0l0,-4.507c1.093,-0.077 2.641,-0.192 4.644,-0.347c2.003,-0.154 3.409,-0.385 4.218,-0.693c1.457,-0.539 2.468,-1.29 3.035,-2.253c0.566,-0.963 0.85,-2.177 0.85,-3.641l-0,-58.127c-0,-1.348 -0.243,-2.485 -0.729,-3.409c-0.485,-0.925 -1.537,-1.753 -3.156,-2.485c-1.254,-0.539 -2.772,-0.982 -4.552,-1.329c-1.781,-0.346 -3.217,-0.578 -4.31,-0.693l0,-4.507l47.283,0l-0,4.507c-1.255,0.115 -2.762,0.279 -4.522,0.491c-1.76,0.212 -3.268,0.51 -4.522,0.896c-1.578,0.5 -2.63,1.29 -3.156,2.369c-0.526,1.078 -0.789,2.272 -0.789,3.582l-0,27.619l2.549,0c3.156,-2.735 6.838,-6.028 11.047,-9.88c4.208,-3.852 7.465,-7.011 9.772,-9.476c3.237,-3.429 5.614,-6.144 7.131,-8.147c1.518,-2.003 2.277,-3.737 2.277,-5.201c-0,-0.654 -0.729,-1.155 -2.185,-1.502c-1.457,-0.347 -3.683,-0.597 -6.677,-0.751l-0,-4.507l37.449,0l0,4.507c-4.527,0.462 -8.327,1.242 -11.4,2.34c-3.072,1.098 -6.124,2.937 -9.156,5.518c-4.319,3.693 -7.882,6.896 -10.688,9.608c-2.806,2.712 -6.409,6.184 -10.809,10.415c3.88,4.511 8.548,10.033 14.004,16.567c5.456,6.534 10.892,12.904 16.308,19.111c1.373,1.579 2.948,3.091 4.725,4.536c1.777,1.444 3.736,2.609 5.876,3.495c1.01,0.424 2.161,0.752 3.454,0.983c1.292,0.231 2.402,0.366 3.331,0.404l0,4.507Z" style="fill:#ff6e6f;fill-rule:nonzero;"/><path d="M244.008,187.887l-38.36,0l-0,-4.218c1.052,-0.077 2.084,-0.173 3.095,-0.289c1.012,-0.115 1.882,-0.308 2.61,-0.578c1.295,-0.462 2.205,-1.126 2.731,-1.993c0.526,-0.867 0.79,-2.013 0.79,-3.438l-0,-33.629c-0,-1.348 -0.324,-2.532 -0.972,-3.553c-0.647,-1.021 -1.456,-1.839 -2.427,-2.456c-0.729,-0.462 -1.831,-0.905 -3.308,-1.329c-1.477,-0.423 -2.823,-0.693 -4.037,-0.809l0,-4.218l29.741,-1.502l0.911,0.867l-0,45.878c-0,1.348 0.303,2.494 0.91,3.438c0.607,0.944 1.477,1.647 2.61,2.109c0.809,0.346 1.7,0.655 2.671,0.924c0.971,0.27 1.983,0.463 3.035,0.578l-0,4.218Zm-8.862,-78.813c-0,2.928 -1.184,5.422 -3.551,7.483c-2.367,2.06 -5.169,3.091 -8.406,3.091c-3.278,-0 -6.1,-1.031 -8.467,-3.091c-2.367,-2.061 -3.551,-4.555 -3.551,-7.483c0,-2.928 1.184,-5.431 3.551,-7.512c2.367,-2.08 5.189,-3.12 8.467,-3.12c3.277,0 6.09,1.04 8.437,3.12c2.347,2.081 3.52,4.584 3.52,7.512Z" style="fill:#ff6e6f;fill-rule:nonzero;"/><path d="M294.75,185.229c-2.59,1.079 -5.362,2.051 -8.316,2.918c-2.954,0.867 -6.555,1.3 -10.804,1.3c-6.312,0 -10.996,-1.462 -14.051,-4.386c-3.055,-2.924 -4.582,-7.099 -4.582,-12.525l-0,-35.438l-10.926,-0l0,-6.298l11.168,-0l0,-17.508l19.666,-0l-0,17.508l17.056,-0l-0,6.298l-16.935,-0l0,31.622c0,4.501 0.66,7.694 1.98,9.579c1.319,1.885 3.684,2.828 7.095,2.828c1.097,-0 2.619,-0.077 4.568,-0.231c1.949,-0.154 3.309,-0.328 4.081,-0.52l-0,4.853Z" style="fill:#ff6e6f;fill-rule:nonzero;"/><path d="M327.101,189.852c-3.925,-0 -7.759,-0.549 -11.502,-1.647c-3.743,-1.098 -6.647,-2.263 -8.71,-3.496l-1.821,3.929l-4.734,0l-0.789,-21.552l4.43,-0c0.607,1.733 1.619,3.688 3.035,5.865c1.416,2.176 3.035,4.131 4.856,5.864c1.902,1.734 4.077,3.198 6.525,4.392c2.448,1.194 5.068,1.791 7.86,1.791c3.682,0 6.423,-0.684 8.224,-2.051c1.801,-1.368 2.701,-3.477 2.701,-6.327c0,-1.541 -0.405,-2.812 -1.214,-3.814c-0.809,-1.001 -1.922,-1.868 -3.338,-2.6c-1.578,-0.77 -3.308,-1.425 -5.19,-1.964c-1.881,-0.54 -4.198,-1.195 -6.949,-1.965c-2.752,-0.77 -5.109,-1.55 -7.071,-2.34c-1.963,-0.79 -3.996,-2.032 -6.1,-3.727c-1.821,-1.502 -3.278,-3.313 -4.37,-5.431c-1.093,-2.119 -1.639,-4.642 -1.639,-7.57c-0,-5.431 2.397,-9.822 7.192,-13.174c4.795,-3.351 11.077,-5.027 18.846,-5.027c3.683,0 7.071,0.357 10.167,1.069c3.095,0.713 5.695,1.493 7.799,2.34l1.275,-3.409l4.613,0l0.971,19.704l-4.249,-0c-1.416,-4.006 -3.844,-7.464 -7.283,-10.372c-3.44,-2.908 -7.142,-4.362 -11.108,-4.362c-3.115,-0 -5.563,0.616 -7.344,1.849c-1.78,1.232 -2.67,2.946 -2.67,5.142c-0,2.928 1.302,5.046 3.908,6.356c2.605,1.31 6.251,2.542 10.936,3.698c7.232,1.772 12.523,4.189 15.876,7.251c3.353,3.063 5.03,6.963 5.03,11.701c-0,6.317 -2.6,11.209 -7.8,14.676c-5.2,3.467 -11.987,5.201 -20.363,5.201Z" style="fill:#ff6e6f;fill-rule:nonzero;"/><path d="M432.105,186.674c-1.777,0.732 -3.877,1.406 -6.3,2.022c-2.423,0.616 -4.987,0.925 -7.693,0.925c-4.967,-0 -8.621,-0.704 -10.963,-2.11c-2.342,-1.406 -3.938,-3.418 -4.786,-6.038l-0.363,0c-1.378,1.31 -2.705,2.427 -3.982,3.352c-1.277,0.924 -2.645,1.714 -4.104,2.369c-1.905,0.847 -3.738,1.483 -5.501,1.906c-1.763,0.424 -4.226,0.636 -7.387,0.636c-4.701,0 -8.714,-1.321 -12.037,-3.964c-3.323,-2.642 -4.985,-6.143 -4.985,-10.503c-0,-2.507 0.365,-4.639 1.094,-6.394c0.73,-1.755 1.763,-3.308 3.1,-4.658c1.216,-1.235 2.625,-2.258 4.225,-3.068c1.601,-0.81 3.354,-1.562 5.259,-2.256c3.648,-1.273 8.025,-2.594 13.131,-3.964c5.107,-1.37 8.836,-2.595 11.187,-3.675l-0,-5.547c-0,-0.963 -0.081,-2.234 -0.243,-3.813c-0.162,-1.58 -0.506,-2.909 -1.032,-3.987c-0.567,-1.233 -1.458,-2.273 -2.672,-3.121c-1.214,-0.847 -2.813,-1.271 -4.797,-1.271c-1.781,0 -3.268,0.241 -4.463,0.723c-1.194,0.481 -2.155,0.972 -2.884,1.473c0.122,0.77 0.467,1.945 1.036,3.525c0.568,1.579 0.852,3.1 0.852,4.564c-0,0.655 -0.183,1.474 -0.548,2.456c-0.365,0.982 -0.893,1.762 -1.583,2.34c-0.934,0.77 -1.978,1.368 -3.135,1.791c-1.156,0.424 -2.931,0.636 -5.326,0.636c-3.409,-0 -5.986,-0.78 -7.731,-2.34c-1.745,-1.56 -2.617,-3.592 -2.617,-6.096c-0,-2.157 0.9,-4.093 2.7,-5.807c1.801,-1.714 3.996,-3.13 6.586,-4.247c2.549,-1.156 5.483,-2.051 8.801,-2.687c3.318,-0.635 6.393,-0.953 9.226,-0.953c3.925,-0 7.526,0.221 10.804,0.664c3.277,0.443 6.231,1.358 8.861,2.745c2.509,1.348 4.502,3.303 5.979,5.865c1.477,2.561 2.215,5.903 2.215,10.025c0,4.352 -0.091,9.514 -0.273,15.485c-0.182,5.971 -0.273,9.9 -0.273,11.787c-0,1.734 0.273,3.101 0.819,4.103c0.547,1.001 1.386,1.752 2.519,2.253c0.688,0.308 1.771,0.491 3.248,0.549c1.476,0.058 2.822,0.087 4.036,0.087l-0,4.218Zm-30.105,-30.104c-2.275,0.734 -4.528,1.573 -6.762,2.519c-2.233,0.946 -4.061,1.941 -5.482,2.984c-1.502,1.081 -2.68,2.461 -3.533,4.14c-0.853,1.68 -1.279,3.659 -1.279,5.937c-0,3.012 0.721,5.193 2.162,6.545c1.442,1.351 3.218,2.027 5.33,2.027c2.234,0 4.071,-0.434 5.513,-1.303c1.442,-0.869 2.71,-1.94 3.807,-3.214l0.244,-19.635Z" style="fill:#ff6e6f;fill-rule:nonzero;"/><path d="M510.706,159.748c0,8.128 -2.849,15.1 -8.547,20.916c-5.697,5.817 -12.911,8.725 -21.64,8.725c-3.879,0 -7.031,-0.375 -9.456,-1.126c-2.425,-0.752 -4.425,-1.666 -6.001,-2.745l-0.485,0l0,16.236c0,1.349 0.314,2.524 0.941,3.525c0.627,1.002 1.507,1.734 2.64,2.196c1.093,0.424 2.641,0.809 4.644,1.155c2.003,0.347 3.672,0.559 5.007,0.636l-0,4.276l-43.883,-0l-0,-4.276c1.011,-0.077 2.286,-0.221 3.824,-0.433c1.537,-0.212 2.69,-0.434 3.459,-0.665c1.295,-0.424 2.175,-1.146 2.64,-2.167c0.466,-1.02 0.699,-2.186 0.699,-3.495l-0,-59.11c-0.122,-1.271 -0.435,-2.388 -0.941,-3.351c-0.506,-0.963 -1.305,-1.811 -2.398,-2.543c-0.809,-0.501 -1.881,-0.915 -3.217,-1.242c-1.335,-0.328 -2.65,-0.549 -3.945,-0.665l0,-4.218l29.618,-1.502l0.912,0.751l0,6.414l0.485,0.115c2.667,-2.58 5.627,-4.583 8.88,-6.009c3.253,-1.425 6.476,-2.138 9.669,-2.138c8.365,0 14.972,2.822 19.821,8.465c4.85,5.644 7.274,13.068 7.274,22.275Zm-21.79,0.231c0,-2.889 -0.222,-5.653 -0.665,-8.292c-0.444,-2.638 -1.231,-4.998 -2.362,-7.078c-1.09,-2.08 -2.533,-3.736 -4.329,-4.969c-1.796,-1.233 -3.986,-1.849 -6.569,-1.849c-2.624,0 -4.723,0.433 -6.297,1.3c-1.574,0.867 -2.946,1.994 -4.117,3.38l0,32.762c0.242,0.77 0.707,1.762 1.393,2.976c0.686,1.213 1.372,2.186 2.058,2.918c1.009,1.04 2.16,1.81 3.451,2.311c1.292,0.501 2.705,0.751 4.239,0.751c3.996,0 7.194,-2.051 9.596,-6.154c2.402,-4.102 3.602,-10.121 3.602,-18.056Z" style="fill:#ff6e6f;fill-rule:nonzero;"/><path d="M39.193,264.963c-3.4,-0 -6.66,-0.67 -9.779,-2.011c-3.119,-1.34 -5.883,-3.271 -8.292,-5.791c-2.383,-2.521 -4.284,-5.597 -5.703,-9.23c-1.419,-3.634 -2.128,-7.729 -2.128,-12.287c-0,-4.559 0.696,-8.695 2.088,-12.408c1.392,-3.714 3.319,-6.911 5.782,-9.592c2.436,-2.654 5.314,-4.705 8.633,-6.153c3.319,-1.448 6.866,-2.172 10.641,-2.172c2.811,-0 5.354,0.348 7.629,1.045c2.275,0.696 4.444,1.674 6.505,2.934l1.646,-2.733l3.216,-0l0.361,20.337l-3.295,-0c-0.429,-1.983 -1.071,-4.134 -1.927,-6.451c-0.857,-2.318 -1.86,-4.281 -3.011,-5.888c-1.285,-1.822 -2.81,-3.249 -4.576,-4.281c-1.767,-1.031 -3.787,-1.547 -6.062,-1.547c-2.596,-0 -5.011,0.576 -7.246,1.729c-2.235,1.153 -4.168,2.856 -5.8,5.109c-1.553,2.172 -2.771,4.934 -3.654,8.286c-0.883,3.352 -1.325,7.092 -1.325,11.222c0,3.647 0.462,6.992 1.386,10.035c0.923,3.044 2.241,5.719 3.954,8.025c1.713,2.279 3.74,4.062 6.082,5.35c2.342,1.287 4.958,1.93 7.849,1.93c2.168,0 4.162,-0.341 5.982,-1.025c1.82,-0.683 3.399,-1.587 4.737,-2.713c1.338,-1.178 2.516,-2.518 3.533,-4.019c1.017,-1.5 1.847,-3.135 2.489,-4.903l3.014,1.447c-2.302,5.653 -5.354,9.693 -9.155,12.118c-3.802,2.424 -8.327,3.637 -13.574,3.637Z" style="fill:#5babff;fill-rule:nonzero;"/><path d="M104.566,243.38c-0,2.787 -0.443,5.526 -1.328,8.219c-0.885,2.693 -2.145,4.977 -3.782,6.853c-1.851,2.143 -3.996,3.738 -6.437,4.783c-2.441,1.045 -5.177,1.567 -8.208,1.567c-2.521,0 -4.922,-0.475 -7.202,-1.427c-2.279,-0.951 -4.305,-2.337 -6.075,-4.159c-1.743,-1.796 -3.131,-3.986 -4.164,-6.572c-1.033,-2.585 -1.549,-5.486 -1.549,-8.701c0,-6.19 1.804,-11.254 5.411,-15.193c3.608,-3.938 8.335,-5.908 14.182,-5.908c5.553,0 10.133,1.869 13.74,5.607c3.608,3.738 5.412,8.715 5.412,14.931Zm-8.32,0.08c0,-2.009 -0.201,-4.133 -0.604,-6.37c-0.402,-2.237 -1.006,-4.133 -1.812,-5.687c-0.859,-1.661 -1.986,-2.994 -3.382,-3.999c-1.396,-1.005 -3.101,-1.507 -5.114,-1.507c-2.067,-0 -3.832,0.509 -5.295,1.527c-1.462,1.018 -2.65,2.412 -3.563,4.18c-0.859,1.634 -1.463,3.497 -1.812,5.587c-0.349,2.09 -0.523,4.112 -0.523,6.068c-0,2.573 0.208,4.951 0.624,7.134c0.416,2.184 1.081,4.134 1.993,5.848c0.913,1.715 2.06,3.062 3.443,4.04c1.382,0.978 3.093,1.467 5.133,1.467c3.356,-0 6.013,-1.621 7.973,-4.864c1.959,-3.242 2.939,-7.716 2.939,-13.424Z" style="fill:#5babff;fill-rule:nonzero;"/><path d="M178.076,263.596l-19.292,0l0,-2.652c0.616,-0.054 1.239,-0.107 1.869,-0.161c0.63,-0.054 1.186,-0.161 1.668,-0.322c0.75,-0.241 1.306,-0.663 1.668,-1.266c0.362,-0.602 0.543,-1.386 0.543,-2.351l-0,-20.457c-0,-2.787 -0.637,-4.937 -1.91,-6.451c-1.272,-1.514 -2.86,-2.271 -4.762,-2.271c-1.313,0 -2.546,0.201 -3.698,0.603c-1.152,0.402 -2.21,0.965 -3.175,1.688c-0.777,0.59 -1.427,1.226 -1.949,1.909c-0.523,0.683 -0.918,1.253 -1.186,1.708l0,22.869c0,0.938 0.161,1.708 0.482,2.311c0.322,0.603 0.871,1.065 1.648,1.387c0.616,0.241 1.172,0.422 1.668,0.543c0.496,0.12 1.146,0.207 1.949,0.261l0,2.652l-18.89,0l0,-2.652c0.617,-0.054 1.213,-0.107 1.789,-0.161c0.576,-0.054 1.105,-0.161 1.587,-0.322c0.751,-0.241 1.307,-0.663 1.668,-1.266c0.362,-0.602 0.543,-1.386 0.543,-2.351l0,-20.457c0,-2.787 -0.638,-4.937 -1.914,-6.451c-1.276,-1.514 -2.867,-2.271 -4.774,-2.271c-1.316,0 -2.551,0.208 -3.706,0.623c-1.155,0.415 -2.216,0.985 -3.183,1.708c-0.779,0.59 -1.437,1.253 -1.974,1.99c-0.537,0.737 -0.94,1.293 -1.209,1.668l0,22.708c0,0.911 0.188,1.675 0.563,2.291c0.375,0.616 0.938,1.085 1.688,1.407c0.563,0.268 1.139,0.468 1.728,0.602c0.59,0.134 1.246,0.228 1.97,0.282l-0,2.652l-19.252,0l-0,-2.652c0.616,-0.054 1.252,-0.107 1.909,-0.161c0.656,-0.054 1.226,-0.161 1.708,-0.321c0.75,-0.241 1.306,-0.662 1.668,-1.264c0.362,-0.603 0.543,-1.385 0.543,-2.349l-0,-24.608c-0,-0.856 -0.195,-1.626 -0.583,-2.308c-0.389,-0.683 -0.931,-1.265 -1.628,-1.747c-0.509,-0.321 -1.139,-0.582 -1.889,-0.782c-0.75,-0.201 -1.527,-0.328 -2.331,-0.382l-0,-2.653l13.263,-0.884l0.563,0.563l-0,5.667l0.281,-0c0.67,-0.67 1.487,-1.46 2.452,-2.371c0.964,-0.911 1.862,-1.648 2.693,-2.211c0.937,-0.643 2.11,-1.179 3.516,-1.608c1.407,-0.428 2.928,-0.643 4.562,-0.643c2.572,0 4.783,0.69 6.632,2.07c1.849,1.38 3.175,3.048 3.979,5.004c0.963,-0.938 1.812,-1.762 2.547,-2.472c0.736,-0.71 1.706,-1.467 2.91,-2.271c1.016,-0.696 2.214,-1.259 3.591,-1.688c1.378,-0.428 2.909,-0.643 4.594,-0.643c3.344,0 5.992,1.099 7.945,3.296c1.953,2.197 2.93,5.573 2.93,10.128l-0,20.136c-0,0.938 0.16,1.708 0.482,2.311c0.321,0.603 0.871,1.065 1.648,1.387c0.616,0.241 1.226,0.422 1.828,0.543c0.603,0.12 1.28,0.207 2.03,0.261l0,2.652Z" style="fill:#5babff;fill-rule:nonzero;"/><path d="M218.991,228.67c1.581,1.876 2.807,4.053 3.678,6.531c0.87,2.479 1.306,5.312 1.306,8.501c-0,3.135 -0.523,5.995 -1.568,8.58c-1.045,2.586 -2.425,4.79 -4.139,6.612c-1.796,1.849 -3.792,3.269 -5.989,4.26c-2.197,0.992 -4.528,1.487 -6.993,1.487c-2.385,0 -4.341,-0.268 -5.868,-0.803c-1.527,-0.536 -2.773,-1.166 -3.738,-1.889l-0.322,-0l0,11.925c0,0.967 0.188,1.772 0.563,2.417c0.375,0.645 0.951,1.115 1.728,1.41c0.643,0.242 1.561,0.477 2.753,0.705c1.193,0.228 2.178,0.356 2.955,0.383l-0,2.652l-22.146,0l0,-2.652c0.831,-0.054 1.634,-0.121 2.412,-0.201c0.777,-0.081 1.473,-0.214 2.089,-0.402c0.804,-0.268 1.367,-0.737 1.689,-1.407c0.321,-0.67 0.482,-1.46 0.482,-2.371l-0,-42.161c-0,-0.804 -0.201,-1.581 -0.603,-2.331c-0.402,-0.75 -0.924,-1.353 -1.568,-1.809c-0.482,-0.321 -1.152,-0.569 -2.009,-0.743c-0.858,-0.174 -1.688,-0.288 -2.492,-0.342l0,-2.653l13.504,-0.884l0.563,0.483l0,4.461l0.322,0.08c1.393,-1.607 3.121,-2.947 5.184,-4.019c2.063,-1.072 4.113,-1.608 6.15,-1.608c2.465,0 4.722,0.523 6.772,1.568c2.05,1.045 3.811,2.452 5.285,4.22Zm-6.551,28.496c1.072,-1.661 1.862,-3.591 2.371,-5.788c0.509,-2.197 0.764,-4.649 0.764,-7.355c-0,-1.983 -0.215,-4.006 -0.643,-6.069c-0.429,-2.063 -1.099,-3.858 -2.01,-5.385c-0.911,-1.555 -2.103,-2.814 -3.577,-3.778c-1.474,-0.965 -3.242,-1.447 -5.305,-1.447c-1.983,-0 -3.671,0.435 -5.064,1.306c-1.394,0.871 -2.599,1.909 -3.618,3.115l0,23.431c0.242,0.724 0.637,1.474 1.186,2.251c0.549,0.777 1.159,1.447 1.829,2.01c0.83,0.67 1.728,1.212 2.693,1.627c0.964,0.416 2.143,0.623 3.537,0.623c1.5,0 2.947,-0.395 4.34,-1.185c1.394,-0.791 2.559,-1.909 3.497,-3.356Z" style="fill:#5babff;fill-rule:nonzero;"/><path d="M268.467,243.38c-0,2.787 -0.443,5.526 -1.328,8.219c-0.885,2.693 -2.145,4.977 -3.781,6.853c-1.851,2.143 -3.997,3.738 -6.438,4.783c-2.441,1.045 -5.177,1.567 -8.208,1.567c-2.521,0 -4.922,-0.475 -7.201,-1.427c-2.28,-0.951 -4.305,-2.337 -6.076,-4.159c-1.743,-1.796 -3.131,-3.986 -4.164,-6.572c-1.032,-2.585 -1.549,-5.486 -1.549,-8.701c0,-6.19 1.804,-11.254 5.412,-15.193c3.607,-3.938 8.335,-5.908 14.182,-5.908c5.552,0 10.132,1.869 13.739,5.607c3.608,3.738 5.412,8.715 5.412,14.931Zm-8.32,0.08c0,-2.009 -0.201,-4.133 -0.604,-6.37c-0.402,-2.237 -1.006,-4.133 -1.812,-5.687c-0.859,-1.661 -1.986,-2.994 -3.382,-3.999c-1.396,-1.005 -3.1,-1.507 -5.114,-1.507c-2.067,-0 -3.832,0.509 -5.294,1.527c-1.463,1.018 -2.651,2.412 -3.564,4.18c-0.859,1.634 -1.463,3.497 -1.812,5.587c-0.349,2.09 -0.523,4.112 -0.523,6.068c-0,2.573 0.208,4.951 0.624,7.134c0.416,2.184 1.081,4.134 1.993,5.848c0.913,1.715 2.061,3.062 3.443,4.04c1.382,0.978 3.094,1.467 5.133,1.467c3.356,-0 6.013,-1.621 7.973,-4.864c1.959,-3.242 2.939,-7.716 2.939,-13.424Z" style="fill:#5babff;fill-rule:nonzero;"/><path d="M300.339,244.184c1.098,0.964 1.942,2.076 2.532,3.336c0.589,1.259 0.884,2.8 0.884,4.622c0,3.671 -1.373,6.672 -4.12,9.003c-2.746,2.331 -6.303,3.496 -10.67,3.496c-2.305,0 -4.428,-0.415 -6.371,-1.246c-1.942,-0.83 -3.329,-1.594 -4.16,-2.29l-0.803,2.612l-3.015,-0l-0.402,-13.786l2.774,0c0.214,1.049 0.669,2.272 1.366,3.671c0.697,1.398 1.541,2.661 2.532,3.79c1.045,1.184 2.298,2.178 3.758,2.985c1.46,0.807 3.101,1.21 4.923,1.21c2.573,-0 4.556,-0.586 5.949,-1.759c1.393,-1.172 2.09,-2.85 2.09,-5.034c-0,-1.125 -0.221,-2.096 -0.663,-2.913c-0.442,-0.818 -1.092,-1.534 -1.95,-2.151c-0.884,-0.616 -1.969,-1.172 -3.255,-1.668c-1.286,-0.495 -2.72,-0.984 -4.301,-1.467c-1.259,-0.375 -2.659,-0.891 -4.2,-1.547c-1.54,-0.656 -2.86,-1.427 -3.959,-2.311c-1.179,-0.938 -2.143,-2.09 -2.893,-3.456c-0.751,-1.367 -1.126,-2.975 -1.126,-4.823c0,-3.243 1.206,-5.989 3.618,-8.24c2.411,-2.25 5.64,-3.376 9.686,-3.376c1.554,0 3.141,0.201 4.762,0.603c1.621,0.402 2.941,0.884 3.959,1.447l0.925,-2.09l2.893,-0l0.603,12.741l-2.773,-0c-0.563,-2.852 -1.775,-5.173 -3.637,-6.962c-1.862,-1.79 -4.133,-2.684 -6.813,-2.684c-2.197,-0 -3.925,0.553 -5.184,1.659c-1.26,1.107 -1.889,2.442 -1.889,4.008c-0,1.205 0.207,2.21 0.623,3.014c0.415,0.804 1.038,1.487 1.868,2.05c0.804,0.536 1.816,1.038 3.035,1.507c1.219,0.469 2.726,0.998 4.521,1.588c1.769,0.562 3.437,1.219 5.004,1.969c1.568,0.75 2.861,1.581 3.879,2.492Z" style="fill:#5babff;fill-rule:nonzero;"/><path d="M328.955,263.596l-19.131,0l0,-2.652c0.616,-0.054 1.253,-0.107 1.909,-0.161c0.657,-0.054 1.226,-0.161 1.708,-0.321c0.75,-0.241 1.306,-0.662 1.668,-1.264c0.362,-0.603 0.543,-1.385 0.543,-2.349l-0,-24.448c-0,-0.856 -0.194,-1.639 -0.583,-2.348c-0.389,-0.709 -0.931,-1.305 -1.628,-1.786c-0.509,-0.321 -1.246,-0.596 -2.21,-0.823c-0.965,-0.228 -1.849,-0.368 -2.653,-0.422l0,-2.653l13.987,-0.884l0.562,0.563l0,32.314c0,0.938 0.18,1.715 0.539,2.331c0.359,0.616 0.925,1.072 1.696,1.367c0.586,0.241 1.158,0.435 1.717,0.582c0.559,0.148 1.184,0.248 1.876,0.302l0,2.652Zm-5.024,-55.745c0,1.527 -0.502,2.86 -1.507,3.999c-1.005,1.139 -2.244,1.708 -3.718,1.708c-1.366,-0 -2.552,-0.543 -3.557,-1.628c-1.004,-1.085 -1.507,-2.324 -1.507,-3.718c0,-1.473 0.503,-2.759 1.507,-3.858c1.005,-1.099 2.191,-1.648 3.557,-1.648c1.528,0 2.78,0.516 3.758,1.548c0.978,1.031 1.467,2.23 1.467,3.597Z" style="fill:#5babff;fill-rule:nonzero;"/><path d="M358.335,261.868c-1.741,0.724 -3.389,1.333 -4.943,1.829c-1.554,0.496 -3.457,0.743 -5.708,0.743c-3.322,0 -5.66,-0.837 -7.013,-2.512c-1.353,-1.674 -2.03,-4.039 -2.03,-7.093l0,-26.848l-7.154,-0l0,-3.859l7.315,0l0,-12.338l7.315,-0l-0,12.338l11.374,0l0,3.859l-11.294,-0l0,22.145c0,1.661 0.061,3.048 0.181,4.16c0.121,1.112 0.409,2.083 0.864,2.914c0.429,0.777 1.072,1.366 1.93,1.768c0.857,0.402 2.009,0.603 3.456,0.603c0.67,0 1.655,-0.06 2.954,-0.181c1.3,-0.12 2.217,-0.274 2.753,-0.462l0,2.934Z" style="fill:#5babff;fill-rule:nonzero;"/><path d="M397.482,254.272c-1.661,3.162 -3.885,5.68 -6.672,7.556c-2.787,1.876 -5.989,2.813 -9.606,2.813c-3.188,0 -5.982,-0.562 -8.38,-1.688c-2.398,-1.125 -4.374,-2.652 -5.928,-4.581c-1.554,-1.93 -2.713,-4.18 -3.477,-6.753c-0.763,-2.572 -1.145,-5.292 -1.145,-8.159c-0,-2.572 0.409,-5.097 1.226,-7.576c0.817,-2.478 2.016,-4.709 3.597,-6.692c1.527,-1.902 3.423,-3.436 5.687,-4.601c2.264,-1.166 4.803,-1.749 7.616,-1.749c2.894,0 5.373,0.456 7.436,1.367c2.063,0.911 3.738,2.157 5.024,3.738c1.232,1.5 2.15,3.268 2.753,5.305c0.603,2.036 0.904,4.247 0.904,6.631l0,2.653l-26.245,0c0,2.605 0.248,4.968 0.744,7.09c0.495,2.121 1.279,3.988 2.351,5.599c1.045,1.558 2.411,2.786 4.099,3.686c1.688,0.9 3.698,1.35 6.029,1.35c2.385,-0 4.441,-0.559 6.17,-1.677c1.728,-1.118 3.396,-3.131 5.003,-6.04l2.814,1.728Zm-8.883,-15.112c0,-1.496 -0.127,-3.099 -0.381,-4.808c-0.255,-1.71 -0.664,-3.139 -1.226,-4.288c-0.616,-1.229 -1.461,-2.23 -2.532,-3.005c-1.072,-0.775 -2.452,-1.162 -4.14,-1.162c-2.813,-0 -5.151,1.168 -7.013,3.506c-1.863,2.337 -2.874,5.59 -3.035,9.757l18.327,-0Z" style="fill:#5babff;fill-rule:nonzero;"/><path d="M428.228,244.184c1.099,0.964 1.943,2.076 2.532,3.336c0.59,1.259 0.885,2.8 0.885,4.622c-0,3.671 -1.374,6.672 -4.12,9.003c-2.746,2.331 -6.303,3.496 -10.671,3.496c-2.304,0 -4.428,-0.415 -6.37,-1.246c-1.943,-0.83 -3.329,-1.594 -4.16,-2.29l-0.804,2.612l-3.014,-0l-0.402,-13.786l2.773,0c0.214,1.049 0.67,2.272 1.367,3.671c0.696,1.398 1.54,2.661 2.532,3.79c1.045,1.184 2.297,2.178 3.758,2.985c1.46,0.807 3.101,1.21 4.923,1.21c2.572,-0 4.555,-0.586 5.948,-1.759c1.394,-1.172 2.09,-2.85 2.09,-5.034c0,-1.125 -0.221,-2.096 -0.663,-2.913c-0.442,-0.818 -1.092,-1.534 -1.949,-2.151c-0.884,-0.616 -1.97,-1.172 -3.256,-1.668c-1.286,-0.495 -2.719,-0.984 -4.3,-1.467c-1.259,-0.375 -2.66,-0.891 -4.2,-1.547c-1.541,-0.656 -2.86,-1.427 -3.959,-2.311c-1.179,-0.938 -2.144,-2.09 -2.894,-3.456c-0.75,-1.367 -1.125,-2.975 -1.125,-4.823c-0,-3.243 1.206,-5.989 3.617,-8.24c2.412,-2.25 5.64,-3.376 9.686,-3.376c1.554,0 3.142,0.201 4.763,0.603c1.621,0.402 2.941,0.884 3.959,1.447l0.924,-2.09l2.894,-0l0.603,12.741l-2.773,-0c-0.563,-2.852 -1.776,-5.173 -3.638,-6.962c-1.862,-1.79 -4.133,-2.684 -6.812,-2.684c-2.197,-0 -3.926,0.553 -5.185,1.659c-1.259,1.107 -1.889,2.442 -1.889,4.008c0,1.205 0.208,2.21 0.623,3.014c0.415,0.804 1.038,1.487 1.869,2.05c0.804,0.536 1.815,1.038 3.034,1.507c1.22,0.469 2.727,0.998 4.522,1.588c1.768,0.562 3.436,1.219 5.004,1.969c1.567,0.75 2.86,1.581 3.878,2.492Z" style="fill:#5babff;fill-rule:nonzero;"/></g><defs><radialGradient id="_Radial2" cx="0" cy="0" r="1" gradientUnits="userSpaceOnUse" gradientTransform="matrix(2.13163e-14,206.065,-458.384,2.84217e-14,63.1194,59.0271)"><stop offset="0" style="stop-color:#ffde4d;stop-opacity:1"/><stop offset="1" style="stop-color:#ffde4d;stop-opacity:0"/></radialGradient></defs></svg>