<?xml version="1.0" encoding="UTF-8" standalone="no"?>
<!DOCTYPE svg PUBLIC "-//W3C//DTD SVG 1.1//EN" "http://www.w3.org/Graphics/SVG/1.1/DTD/svg11.dtd">
<svg width="100%" height="100%" viewBox="0 0 2614 566" version="1.1" xmlns="http://www.w3.org/2000/svg" xmlns:xlink="http://www.w3.org/1999/xlink" xml:space="preserve" xmlns:serif="http://www.serif.com/" style="fill-rule:evenodd;clip-rule:evenodd;stroke-linejoin:round;stroke-miterlimit:2;">
    <g transform="matrix(2.42018,0,0,0.524066,0,0)">
        <rect id="Artboard1" x="0" y="0" width="1080" height="1080" style="fill:white;fill-opacity:0;"/>
        <clipPath id="_clip1">
            <rect id="Artboard11" serif:id="Artboard1" x="0" y="0" width="1080" height="1080"/>
        </clipPath>
        <g clip-path="url(#_clip1)">
            <g transform="matrix(2.23836,1.15046,-0.24912,10.3369,-354.77,-2368.62)">
                <path d="M219.023,52.19C211.124,51.657 203.198,51.657 195.299,52.19L206.001,210.695C203.767,210.845 201.584,211.43 199.575,212.417L129.591,69.797C122.483,73.284 115.619,77.248 109.045,81.659L197.565,213.577C195.706,214.824 194.108,216.422 192.861,218.281L60.943,129.761C56.531,136.335 52.568,143.199 49.081,150.307L191.7,220.291C190.714,222.3 190.129,224.483 189.978,226.717L31.474,216.015C30.941,223.914 30.941,231.84 31.474,239.739L189.978,229.037C190.129,231.271 190.714,233.454 191.7,235.464L49.081,305.448C52.568,312.555 56.531,319.419 60.943,325.994L192.861,237.473C194.108,239.332 195.706,240.93 197.565,242.178L109.045,374.096C115.619,378.507 122.483,382.47 129.591,385.958L199.575,243.338C201.584,244.324 203.767,244.909 206.001,245.06L195.299,403.564C203.198,404.098 211.124,404.098 219.023,403.564L208.321,245.06C210.555,244.909 212.738,244.324 214.748,243.338L284.732,385.958C291.839,382.47 298.703,378.507 305.278,374.096L216.757,242.178C218.616,240.93 220.214,239.332 221.462,237.473L353.379,325.994C357.791,319.419 361.754,312.555 365.242,305.448L222.622,235.464C223.608,233.454 224.193,231.271 224.344,229.037L382.848,239.739C383.381,231.84 383.381,223.914 382.848,216.015L224.344,226.717C224.193,224.483 223.608,222.3 222.622,220.291L365.242,150.307C361.754,143.199 357.791,136.335 353.379,129.761L221.462,218.281C220.214,216.422 218.616,214.824 216.757,213.577L305.278,81.659C298.703,77.248 291.839,73.284 284.732,69.797L214.748,212.417C212.738,211.43 210.555,210.845 208.321,210.695L219.023,52.19Z" style="fill:url(#_Radial2);"/>
            </g>
            <g transform="matrix(0.483937,0,0,2.23487,-189.783,-784.025)">
                <circle cx="499.949" cy="451.611" r="88.389" style="fill:rgb(255,207,0);"/>
            </g>
            <g transform="matrix(0.1994,0,0,0.876621,66.6497,198.747)">
                <g transform="matrix(515.165,0,0,515.165,214.628,575.46)">
                    <path d="M0.848,-0L0.573,-0C0.532,-0.063 0.495,-0.117 0.461,-0.159C0.428,-0.202 0.386,-0.255 0.334,-0.32L0.309,-0.32L0.309,-0.102C0.309,-0.09 0.311,-0.08 0.315,-0.072C0.319,-0.064 0.328,-0.057 0.34,-0.052C0.346,-0.049 0.355,-0.047 0.366,-0.044C0.378,-0.041 0.389,-0.039 0.401,-0.038L0.401,-0L0.033,-0L0.033,-0.038C0.042,-0.039 0.054,-0.04 0.07,-0.041C0.086,-0.042 0.097,-0.044 0.104,-0.047C0.116,-0.051 0.124,-0.058 0.128,-0.066C0.133,-0.074 0.135,-0.084 0.135,-0.097L0.135,-0.588C0.135,-0.599 0.133,-0.609 0.129,-0.617C0.125,-0.625 0.117,-0.632 0.104,-0.638C0.094,-0.642 0.082,-0.646 0.067,-0.649C0.053,-0.652 0.042,-0.654 0.033,-0.655L0.033,-0.693L0.413,-0.693L0.413,-0.655C0.403,-0.654 0.391,-0.652 0.377,-0.651C0.363,-0.649 0.35,-0.646 0.34,-0.643C0.328,-0.639 0.319,-0.632 0.315,-0.623C0.311,-0.614 0.309,-0.604 0.309,-0.593L0.309,-0.359L0.329,-0.359C0.354,-0.382 0.384,-0.41 0.418,-0.443C0.452,-0.475 0.478,-0.502 0.497,-0.523C0.523,-0.552 0.542,-0.575 0.554,-0.592C0.566,-0.609 0.572,-0.623 0.572,-0.636C0.572,-0.641 0.566,-0.646 0.555,-0.648C0.543,-0.651 0.525,-0.653 0.501,-0.655L0.501,-0.693L0.802,-0.693L0.802,-0.655C0.766,-0.651 0.735,-0.644 0.711,-0.635C0.686,-0.626 0.661,-0.61 0.637,-0.588C0.602,-0.557 0.573,-0.53 0.551,-0.507C0.528,-0.484 0.499,-0.455 0.464,-0.419C0.495,-0.381 0.533,-0.334 0.577,-0.279C0.62,-0.224 0.664,-0.17 0.708,-0.118C0.719,-0.104 0.732,-0.092 0.746,-0.079C0.76,-0.067 0.776,-0.057 0.793,-0.05C0.801,-0.046 0.81,-0.043 0.821,-0.042C0.831,-0.04 0.84,-0.038 0.848,-0.038L0.848,-0Z" style="fill:rgb(255,110,111);fill-rule:nonzero;"/>
                </g>
                <g transform="matrix(515.165,0,0,515.165,635.463,575.46)">
                    <path d="M0.337,-0L0.028,-0L0.028,-0.036C0.037,-0.036 0.045,-0.037 0.053,-0.038C0.061,-0.039 0.068,-0.041 0.074,-0.043C0.085,-0.047 0.092,-0.052 0.096,-0.06C0.1,-0.067 0.103,-0.077 0.103,-0.089L0.103,-0.373C0.103,-0.384 0.1,-0.394 0.095,-0.403C0.09,-0.412 0.083,-0.419 0.075,-0.424C0.069,-0.428 0.06,-0.431 0.049,-0.435C0.037,-0.439 0.026,-0.441 0.016,-0.442L0.016,-0.478L0.255,-0.49L0.263,-0.483L0.263,-0.095C0.263,-0.084 0.265,-0.074 0.27,-0.066C0.275,-0.058 0.282,-0.052 0.291,-0.048C0.298,-0.045 0.305,-0.043 0.313,-0.041C0.32,-0.038 0.328,-0.037 0.337,-0.036L0.337,-0ZM0.266,-0.666C0.266,-0.641 0.256,-0.62 0.237,-0.603C0.218,-0.585 0.195,-0.577 0.169,-0.577C0.143,-0.577 0.12,-0.585 0.101,-0.603C0.082,-0.62 0.073,-0.641 0.073,-0.666C0.073,-0.691 0.082,-0.712 0.101,-0.729C0.12,-0.747 0.143,-0.756 0.169,-0.756C0.196,-0.756 0.218,-0.747 0.237,-0.729C0.256,-0.712 0.266,-0.691 0.266,-0.666Z" style="fill:rgb(255,110,111);fill-rule:nonzero;"/>
                </g>
                <g transform="matrix(515.165,0,0,515.165,817.582,575.46)">
                    <path d="M0.392,-0.022C0.371,-0.013 0.348,-0.005 0.325,0.002C0.301,0.01 0.272,0.013 0.238,0.013C0.187,0.013 0.149,0.001 0.125,-0.024C0.1,-0.049 0.088,-0.084 0.088,-0.13L0.088,-0.429L0,-0.429L0,-0.482L0.09,-0.482L0.09,-0.63L0.248,-0.63L0.248,-0.482L0.385,-0.482L0.385,-0.429L0.249,-0.429L0.249,-0.162C0.249,-0.124 0.254,-0.097 0.265,-0.081C0.276,-0.065 0.295,-0.057 0.322,-0.057C0.331,-0.057 0.343,-0.058 0.359,-0.059C0.374,-0.06 0.385,-0.062 0.392,-0.063L0.392,-0.022Z" style="fill:rgb(255,110,111);fill-rule:nonzero;"/>
                </g>
                <g transform="matrix(515.165,0,0,515.165,1022.34,575.46)">
                    <path d="M0.254,0.017C0.223,0.017 0.192,0.012 0.162,0.003C0.132,-0.007 0.108,-0.016 0.092,-0.027L0.077,0.006L0.039,0.006L0.033,-0.176L0.068,-0.176C0.073,-0.161 0.081,-0.145 0.093,-0.126C0.104,-0.108 0.117,-0.091 0.132,-0.077C0.147,-0.062 0.165,-0.05 0.184,-0.04C0.204,-0.029 0.225,-0.024 0.248,-0.024C0.277,-0.024 0.299,-0.03 0.314,-0.042C0.328,-0.053 0.335,-0.071 0.335,-0.095C0.335,-0.108 0.332,-0.119 0.326,-0.127C0.319,-0.136 0.31,-0.143 0.299,-0.149C0.286,-0.156 0.272,-0.161 0.257,-0.166C0.242,-0.171 0.223,-0.176 0.201,-0.183C0.179,-0.189 0.16,-0.196 0.144,-0.202C0.128,-0.209 0.112,-0.22 0.095,-0.234C0.081,-0.247 0.069,-0.262 0.06,-0.28C0.051,-0.298 0.047,-0.319 0.047,-0.344C0.047,-0.39 0.066,-0.427 0.105,-0.455C0.143,-0.483 0.194,-0.498 0.256,-0.498C0.286,-0.498 0.313,-0.495 0.338,-0.489C0.363,-0.483 0.384,-0.476 0.401,-0.469L0.411,-0.498L0.448,-0.498L0.456,-0.331L0.422,-0.331C0.41,-0.365 0.391,-0.394 0.363,-0.419C0.336,-0.443 0.306,-0.456 0.274,-0.456C0.249,-0.456 0.229,-0.45 0.215,-0.44C0.201,-0.43 0.193,-0.415 0.193,-0.396C0.193,-0.372 0.204,-0.354 0.225,-0.343C0.246,-0.332 0.275,-0.321 0.313,-0.312C0.371,-0.297 0.414,-0.276 0.44,-0.25C0.467,-0.224 0.481,-0.191 0.481,-0.151C0.481,-0.098 0.46,-0.057 0.418,-0.027C0.376,0.002 0.322,0.017 0.254,0.017Z" style="fill:rgb(255,110,111);fill-rule:nonzero;"/>
                </g>
                <g transform="matrix(515.165,0,0,515.165,1286.46,575.46)">
                    <path d="M0.586,-0.01C0.572,-0.004 0.555,0.002 0.536,0.007C0.516,0.012 0.496,0.015 0.474,0.015C0.434,0.015 0.405,0.009 0.386,-0.003C0.367,-0.015 0.354,-0.032 0.347,-0.054L0.344,-0.054C0.333,-0.043 0.322,-0.034 0.312,-0.026C0.302,-0.018 0.291,-0.011 0.279,-0.006C0.264,0.001 0.249,0.007 0.235,0.01C0.221,0.014 0.201,0.016 0.176,0.016C0.138,0.016 0.105,0.004 0.079,-0.018C0.052,-0.04 0.039,-0.07 0.039,-0.107C0.039,-0.128 0.042,-0.146 0.047,-0.161C0.053,-0.175 0.062,-0.189 0.072,-0.2C0.082,-0.21 0.093,-0.219 0.106,-0.226C0.119,-0.233 0.133,-0.239 0.149,-0.245C0.178,-0.256 0.213,-0.267 0.254,-0.279C0.295,-0.29 0.325,-0.3 0.344,-0.31L0.344,-0.356C0.344,-0.365 0.344,-0.375 0.342,-0.389C0.341,-0.402 0.338,-0.413 0.334,-0.422C0.329,-0.433 0.322,-0.442 0.312,-0.449C0.303,-0.456 0.29,-0.459 0.274,-0.459C0.26,-0.459 0.248,-0.457 0.238,-0.453C0.228,-0.449 0.221,-0.445 0.215,-0.441C0.216,-0.434 0.219,-0.424 0.223,-0.411C0.228,-0.398 0.23,-0.385 0.23,-0.373C0.23,-0.367 0.229,-0.36 0.226,-0.352C0.223,-0.344 0.218,-0.337 0.213,-0.332C0.205,-0.326 0.197,-0.32 0.188,-0.317C0.178,-0.313 0.164,-0.312 0.145,-0.312C0.117,-0.312 0.097,-0.318 0.083,-0.331C0.069,-0.344 0.062,-0.362 0.062,-0.383C0.062,-0.401 0.069,-0.417 0.083,-0.432C0.098,-0.446 0.115,-0.458 0.136,-0.468C0.157,-0.478 0.18,-0.485 0.207,-0.49C0.234,-0.496 0.258,-0.499 0.281,-0.499C0.313,-0.499 0.342,-0.497 0.368,-0.493C0.395,-0.489 0.418,-0.481 0.439,-0.47C0.46,-0.458 0.476,-0.442 0.488,-0.42C0.499,-0.399 0.505,-0.37 0.505,-0.335C0.505,-0.299 0.505,-0.255 0.503,-0.205C0.502,-0.154 0.501,-0.121 0.501,-0.105C0.501,-0.09 0.503,-0.079 0.508,-0.07C0.512,-0.062 0.519,-0.056 0.528,-0.051C0.533,-0.049 0.542,-0.047 0.554,-0.047C0.566,-0.046 0.577,-0.046 0.586,-0.046L0.586,-0.01ZM0.344,-0.265C0.326,-0.258 0.308,-0.251 0.29,-0.243C0.272,-0.235 0.257,-0.227 0.246,-0.218C0.234,-0.209 0.224,-0.197 0.217,-0.183C0.21,-0.169 0.207,-0.152 0.207,-0.133C0.207,-0.108 0.213,-0.089 0.224,-0.078C0.236,-0.066 0.25,-0.061 0.267,-0.061C0.285,-0.061 0.3,-0.064 0.312,-0.072C0.323,-0.079 0.333,-0.088 0.342,-0.099L0.344,-0.265Z" style="fill:rgb(255,110,111);fill-rule:nonzero;"/>
                </g>
                <g transform="matrix(515.165,0,0,515.165,1593.35,575.46)">
                    <path d="M0.623,-0.238C0.623,-0.169 0.6,-0.11 0.554,-0.061C0.508,-0.012 0.45,0.013 0.38,0.013C0.349,0.013 0.324,0.01 0.304,0.003C0.285,-0.003 0.269,-0.011 0.256,-0.02L0.252,-0.02L0.252,0.117C0.252,0.129 0.254,0.139 0.26,0.147C0.265,0.155 0.272,0.162 0.281,0.166C0.29,0.169 0.302,0.172 0.318,0.175C0.334,0.178 0.348,0.18 0.358,0.181L0.358,0.217L0.005,0.217L0.005,0.181C0.014,0.18 0.024,0.179 0.036,0.177C0.049,0.175 0.058,0.173 0.064,0.171C0.074,0.168 0.081,0.162 0.085,0.153C0.089,0.144 0.091,0.135 0.091,0.124L0.091,-0.376C0.09,-0.387 0.087,-0.396 0.083,-0.404C0.079,-0.412 0.073,-0.42 0.064,-0.426C0.057,-0.43 0.049,-0.434 0.038,-0.436C0.027,-0.439 0.017,-0.441 0.006,-0.442L0.006,-0.478L0.245,-0.49L0.252,-0.484L0.252,-0.43L0.256,-0.429C0.277,-0.451 0.301,-0.467 0.327,-0.479C0.353,-0.492 0.379,-0.498 0.405,-0.498C0.472,-0.498 0.526,-0.474 0.565,-0.426C0.604,-0.378 0.623,-0.316 0.623,-0.238ZM0.448,-0.236C0.448,-0.26 0.446,-0.284 0.442,-0.306C0.439,-0.328 0.432,-0.348 0.423,-0.366C0.415,-0.383 0.403,-0.397 0.389,-0.408C0.374,-0.418 0.357,-0.423 0.336,-0.423C0.315,-0.423 0.298,-0.42 0.285,-0.412C0.272,-0.405 0.261,-0.396 0.252,-0.384L0.252,-0.107C0.254,-0.1 0.258,-0.092 0.263,-0.082C0.269,-0.072 0.274,-0.063 0.28,-0.057C0.288,-0.048 0.297,-0.042 0.307,-0.038C0.318,-0.033 0.329,-0.031 0.342,-0.031C0.374,-0.031 0.399,-0.049 0.419,-0.083C0.438,-0.118 0.448,-0.169 0.448,-0.236Z" style="fill:rgb(255,110,111);fill-rule:nonzero;"/>
                </g>
            </g>
            <g transform="matrix(0.324215,0,0,1.49725,464.161,-285.304)">
                <g transform="matrix(301.532,0,0,301.532,37.8501,660.236)">
                    <path d="M0.397,0.019C0.346,0.019 0.299,0.011 0.254,-0.006C0.21,-0.022 0.172,-0.046 0.139,-0.077C0.106,-0.108 0.081,-0.146 0.063,-0.191C0.044,-0.236 0.035,-0.286 0.035,-0.34C0.035,-0.394 0.044,-0.443 0.063,-0.489C0.081,-0.535 0.108,-0.575 0.142,-0.608C0.175,-0.641 0.215,-0.667 0.261,-0.685C0.308,-0.703 0.358,-0.712 0.411,-0.712C0.449,-0.712 0.484,-0.707 0.516,-0.698C0.547,-0.688 0.574,-0.678 0.596,-0.666L0.626,-0.693L0.668,-0.693L0.673,-0.44L0.63,-0.44C0.605,-0.517 0.576,-0.574 0.542,-0.61C0.508,-0.646 0.466,-0.665 0.417,-0.665C0.356,-0.665 0.31,-0.638 0.278,-0.584C0.246,-0.53 0.23,-0.454 0.23,-0.356C0.23,-0.301 0.235,-0.254 0.246,-0.215C0.257,-0.176 0.271,-0.145 0.289,-0.121C0.308,-0.096 0.33,-0.078 0.356,-0.067C0.382,-0.055 0.41,-0.049 0.441,-0.049C0.487,-0.049 0.527,-0.062 0.563,-0.086C0.598,-0.111 0.631,-0.149 0.66,-0.199L0.702,-0.173C0.688,-0.145 0.672,-0.119 0.654,-0.096C0.636,-0.074 0.616,-0.054 0.592,-0.038C0.567,-0.02 0.538,-0.006 0.507,0.004C0.476,0.014 0.439,0.019 0.397,0.019Z" style="fill:rgb(91,171,255);fill-rule:nonzero;"/>
                </g>
                <g transform="matrix(301.532,0,0,301.532,253.546,660.236)">
                    <path d="M0.527,-0.427C0.551,-0.404 0.569,-0.377 0.582,-0.346C0.595,-0.315 0.601,-0.281 0.601,-0.245C0.601,-0.208 0.595,-0.174 0.582,-0.142C0.57,-0.11 0.551,-0.083 0.527,-0.06C0.502,-0.036 0.471,-0.017 0.435,-0.004C0.4,0.009 0.359,0.016 0.313,0.016C0.273,0.016 0.237,0.01 0.203,-0.001C0.17,-0.013 0.14,-0.03 0.115,-0.053C0.09,-0.075 0.07,-0.101 0.056,-0.134C0.042,-0.166 0.035,-0.201 0.035,-0.241C0.035,-0.28 0.041,-0.315 0.053,-0.345C0.066,-0.376 0.085,-0.403 0.11,-0.427C0.134,-0.45 0.164,-0.467 0.199,-0.48C0.234,-0.492 0.274,-0.499 0.317,-0.499C0.363,-0.499 0.403,-0.492 0.438,-0.48C0.472,-0.467 0.502,-0.45 0.527,-0.427ZM0.402,-0.088C0.409,-0.107 0.414,-0.129 0.418,-0.155C0.421,-0.181 0.423,-0.211 0.423,-0.246C0.423,-0.268 0.421,-0.294 0.418,-0.324C0.415,-0.353 0.41,-0.376 0.403,-0.393C0.396,-0.414 0.385,-0.43 0.371,-0.441C0.357,-0.453 0.34,-0.459 0.318,-0.459C0.295,-0.459 0.277,-0.453 0.263,-0.44C0.249,-0.427 0.238,-0.411 0.231,-0.391C0.224,-0.372 0.219,-0.35 0.217,-0.325C0.214,-0.301 0.213,-0.275 0.213,-0.248C0.213,-0.212 0.214,-0.183 0.216,-0.159C0.219,-0.136 0.224,-0.113 0.233,-0.089C0.24,-0.069 0.251,-0.053 0.265,-0.042C0.279,-0.03 0.297,-0.024 0.318,-0.024C0.338,-0.024 0.355,-0.029 0.369,-0.04C0.383,-0.051 0.394,-0.067 0.402,-0.088Z" style="fill:rgb(91,171,255);fill-rule:nonzero;"/>
                </g>
                <g transform="matrix(301.532,0,0,301.532,445.242,660.236)">
                    <path d="M0.998,-0L0.708,-0L0.708,-0.036C0.715,-0.037 0.723,-0.037 0.73,-0.038C0.738,-0.039 0.744,-0.04 0.75,-0.043C0.757,-0.046 0.761,-0.052 0.763,-0.059C0.765,-0.067 0.766,-0.077 0.766,-0.089L0.766,-0.317C0.766,-0.35 0.76,-0.376 0.748,-0.392C0.736,-0.409 0.719,-0.417 0.697,-0.417C0.683,-0.417 0.671,-0.415 0.66,-0.411C0.649,-0.406 0.639,-0.401 0.629,-0.395C0.62,-0.388 0.613,-0.381 0.607,-0.374C0.602,-0.367 0.598,-0.361 0.594,-0.356L0.594,-0.094C0.594,-0.083 0.596,-0.073 0.598,-0.066C0.601,-0.058 0.606,-0.053 0.614,-0.048C0.619,-0.045 0.625,-0.043 0.631,-0.041C0.638,-0.038 0.645,-0.037 0.652,-0.036L0.652,-0L0.375,-0L0.375,-0.036C0.381,-0.036 0.389,-0.037 0.397,-0.038C0.406,-0.039 0.412,-0.041 0.417,-0.043C0.423,-0.047 0.428,-0.052 0.43,-0.059C0.432,-0.065 0.433,-0.076 0.433,-0.089L0.433,-0.317C0.433,-0.35 0.427,-0.376 0.415,-0.392C0.403,-0.409 0.386,-0.417 0.364,-0.417C0.35,-0.417 0.338,-0.415 0.327,-0.411C0.316,-0.406 0.306,-0.401 0.296,-0.395C0.287,-0.388 0.28,-0.381 0.274,-0.374C0.269,-0.367 0.265,-0.361 0.261,-0.356L0.261,-0.094C0.261,-0.083 0.263,-0.073 0.266,-0.066C0.269,-0.058 0.274,-0.053 0.281,-0.048C0.286,-0.045 0.292,-0.043 0.299,-0.041C0.306,-0.038 0.313,-0.037 0.32,-0.036L0.32,-0L0.028,-0L0.028,-0.036C0.036,-0.036 0.045,-0.037 0.053,-0.038C0.061,-0.039 0.068,-0.041 0.074,-0.043C0.084,-0.047 0.091,-0.052 0.095,-0.06C0.099,-0.067 0.101,-0.077 0.101,-0.089L0.101,-0.373C0.101,-0.383 0.098,-0.394 0.093,-0.404C0.087,-0.413 0.081,-0.421 0.073,-0.427C0.067,-0.431 0.059,-0.434 0.051,-0.437C0.042,-0.439 0.032,-0.441 0.021,-0.442L0.021,-0.478L0.254,-0.49L0.261,-0.483L0.261,-0.414L0.263,-0.414C0.272,-0.422 0.283,-0.432 0.296,-0.443C0.308,-0.454 0.32,-0.463 0.331,-0.47C0.343,-0.478 0.359,-0.485 0.377,-0.49C0.396,-0.495 0.417,-0.498 0.439,-0.498C0.477,-0.498 0.508,-0.49 0.532,-0.473C0.557,-0.457 0.575,-0.436 0.585,-0.409L0.59,-0.409C0.599,-0.418 0.611,-0.428 0.625,-0.44C0.638,-0.452 0.651,-0.462 0.662,-0.469C0.675,-0.477 0.691,-0.484 0.711,-0.489C0.73,-0.495 0.751,-0.498 0.774,-0.498C0.823,-0.498 0.861,-0.483 0.887,-0.454C0.914,-0.425 0.927,-0.384 0.927,-0.331L0.927,-0.093C0.927,-0.081 0.929,-0.072 0.933,-0.064C0.936,-0.057 0.943,-0.051 0.952,-0.047C0.957,-0.045 0.964,-0.043 0.971,-0.041C0.979,-0.038 0.988,-0.037 0.998,-0.036L0.998,-0Z" style="fill:rgb(91,171,255);fill-rule:nonzero;"/>
                </g>
                <g transform="matrix(301.532,0,0,301.532,751.486,660.236)">
                    <path d="M0.623,-0.238C0.623,-0.169 0.6,-0.11 0.554,-0.061C0.508,-0.012 0.45,0.013 0.38,0.013C0.349,0.013 0.324,0.01 0.304,0.003C0.285,-0.003 0.269,-0.011 0.256,-0.02L0.252,-0.02L0.252,0.117C0.252,0.129 0.254,0.139 0.26,0.147C0.265,0.155 0.272,0.162 0.281,0.166C0.29,0.169 0.302,0.172 0.318,0.175C0.334,0.178 0.348,0.18 0.358,0.181L0.358,0.217L0.005,0.217L0.005,0.181C0.014,0.18 0.024,0.179 0.036,0.177C0.049,0.175 0.058,0.173 0.064,0.171C0.074,0.168 0.081,0.162 0.085,0.153C0.089,0.144 0.091,0.135 0.091,0.124L0.091,-0.376C0.09,-0.387 0.087,-0.396 0.083,-0.404C0.079,-0.412 0.073,-0.42 0.064,-0.426C0.057,-0.43 0.049,-0.434 0.038,-0.436C0.027,-0.439 0.017,-0.441 0.006,-0.442L0.006,-0.478L0.245,-0.49L0.252,-0.484L0.252,-0.43L0.256,-0.429C0.277,-0.451 0.301,-0.467 0.327,-0.479C0.353,-0.492 0.379,-0.498 0.405,-0.498C0.472,-0.498 0.526,-0.474 0.565,-0.426C0.604,-0.378 0.623,-0.316 0.623,-0.238ZM0.448,-0.236C0.448,-0.26 0.446,-0.284 0.442,-0.306C0.439,-0.328 0.432,-0.348 0.423,-0.366C0.415,-0.383 0.403,-0.397 0.389,-0.408C0.374,-0.418 0.357,-0.423 0.336,-0.423C0.315,-0.423 0.298,-0.42 0.285,-0.412C0.272,-0.405 0.261,-0.396 0.252,-0.384L0.252,-0.107C0.254,-0.1 0.258,-0.092 0.263,-0.082C0.269,-0.072 0.274,-0.063 0.28,-0.057C0.288,-0.048 0.297,-0.042 0.307,-0.038C0.318,-0.033 0.329,-0.031 0.342,-0.031C0.374,-0.031 0.399,-0.049 0.419,-0.083C0.438,-0.118 0.448,-0.169 0.448,-0.236Z" style="fill:rgb(91,171,255);fill-rule:nonzero;"/>
                </g>
                <g transform="matrix(301.532,0,0,301.532,949.808,660.236)">
                    <path d="M0.527,-0.427C0.551,-0.404 0.569,-0.377 0.582,-0.346C0.595,-0.315 0.601,-0.281 0.601,-0.245C0.601,-0.208 0.595,-0.174 0.582,-0.142C0.57,-0.11 0.551,-0.083 0.527,-0.06C0.502,-0.036 0.471,-0.017 0.435,-0.004C0.4,0.009 0.359,0.016 0.313,0.016C0.273,0.016 0.237,0.01 0.203,-0.001C0.17,-0.013 0.14,-0.03 0.115,-0.053C0.09,-0.075 0.07,-0.101 0.056,-0.134C0.042,-0.166 0.035,-0.201 0.035,-0.241C0.035,-0.28 0.041,-0.315 0.053,-0.345C0.066,-0.376 0.085,-0.403 0.11,-0.427C0.134,-0.45 0.164,-0.467 0.199,-0.48C0.234,-0.492 0.274,-0.499 0.317,-0.499C0.363,-0.499 0.403,-0.492 0.438,-0.48C0.472,-0.467 0.502,-0.45 0.527,-0.427ZM0.402,-0.088C0.409,-0.107 0.414,-0.129 0.418,-0.155C0.421,-0.181 0.423,-0.211 0.423,-0.246C0.423,-0.268 0.421,-0.294 0.418,-0.324C0.415,-0.353 0.41,-0.376 0.403,-0.393C0.396,-0.414 0.385,-0.43 0.371,-0.441C0.357,-0.453 0.34,-0.459 0.318,-0.459C0.295,-0.459 0.277,-0.453 0.263,-0.44C0.249,-0.427 0.238,-0.411 0.231,-0.391C0.224,-0.372 0.219,-0.35 0.217,-0.325C0.214,-0.301 0.213,-0.275 0.213,-0.248C0.213,-0.212 0.214,-0.183 0.216,-0.159C0.219,-0.136 0.224,-0.113 0.233,-0.089C0.24,-0.069 0.251,-0.053 0.265,-0.042C0.279,-0.03 0.297,-0.024 0.318,-0.024C0.338,-0.024 0.355,-0.029 0.369,-0.04C0.383,-0.051 0.394,-0.067 0.402,-0.088Z" style="fill:rgb(91,171,255);fill-rule:nonzero;"/>
                </g>
                <g transform="matrix(301.532,0,0,301.532,1141.5,660.236)">
                    <path d="M0.254,0.017C0.223,0.017 0.192,0.012 0.162,0.003C0.132,-0.007 0.108,-0.016 0.092,-0.027L0.077,0.006L0.039,0.006L0.033,-0.176L0.068,-0.176C0.073,-0.161 0.081,-0.145 0.093,-0.126C0.104,-0.108 0.117,-0.091 0.132,-0.077C0.147,-0.062 0.165,-0.05 0.184,-0.04C0.204,-0.029 0.225,-0.024 0.248,-0.024C0.277,-0.024 0.299,-0.03 0.314,-0.042C0.328,-0.053 0.335,-0.071 0.335,-0.095C0.335,-0.108 0.332,-0.119 0.326,-0.127C0.319,-0.136 0.31,-0.143 0.299,-0.149C0.286,-0.156 0.272,-0.161 0.257,-0.166C0.242,-0.171 0.223,-0.176 0.201,-0.183C0.179,-0.189 0.16,-0.196 0.144,-0.202C0.128,-0.209 0.112,-0.22 0.095,-0.234C0.081,-0.247 0.069,-0.262 0.06,-0.28C0.051,-0.298 0.047,-0.319 0.047,-0.344C0.047,-0.39 0.066,-0.427 0.105,-0.455C0.143,-0.483 0.194,-0.498 0.256,-0.498C0.286,-0.498 0.313,-0.495 0.338,-0.489C0.363,-0.483 0.384,-0.476 0.401,-0.469L0.411,-0.498L0.448,-0.498L0.456,-0.331L0.422,-0.331C0.41,-0.365 0.391,-0.394 0.363,-0.419C0.336,-0.443 0.306,-0.456 0.274,-0.456C0.249,-0.456 0.229,-0.45 0.215,-0.44C0.201,-0.43 0.193,-0.415 0.193,-0.396C0.193,-0.372 0.204,-0.354 0.225,-0.343C0.246,-0.332 0.275,-0.321 0.313,-0.312C0.371,-0.297 0.414,-0.276 0.44,-0.25C0.467,-0.224 0.481,-0.191 0.481,-0.151C0.481,-0.098 0.46,-0.057 0.418,-0.027C0.376,0.002 0.322,0.017 0.254,0.017Z" style="fill:rgb(91,171,255);fill-rule:nonzero;"/>
                </g>
                <g transform="matrix(301.532,0,0,301.532,1296.1,660.236)">
                    <path d="M0.337,-0L0.028,-0L0.028,-0.036C0.037,-0.036 0.045,-0.037 0.053,-0.038C0.061,-0.039 0.068,-0.041 0.074,-0.043C0.085,-0.047 0.092,-0.052 0.096,-0.06C0.1,-0.067 0.103,-0.077 0.103,-0.089L0.103,-0.373C0.103,-0.384 0.1,-0.394 0.095,-0.403C0.09,-0.412 0.083,-0.419 0.075,-0.424C0.069,-0.428 0.06,-0.431 0.049,-0.435C0.037,-0.439 0.026,-0.441 0.016,-0.442L0.016,-0.478L0.255,-0.49L0.263,-0.483L0.263,-0.095C0.263,-0.084 0.265,-0.074 0.27,-0.066C0.275,-0.058 0.282,-0.052 0.291,-0.048C0.298,-0.045 0.305,-0.043 0.313,-0.041C0.32,-0.038 0.328,-0.037 0.337,-0.036L0.337,-0ZM0.266,-0.666C0.266,-0.641 0.256,-0.62 0.237,-0.603C0.218,-0.585 0.195,-0.577 0.169,-0.577C0.143,-0.577 0.12,-0.585 0.101,-0.603C0.082,-0.62 0.073,-0.641 0.073,-0.666C0.073,-0.691 0.082,-0.712 0.101,-0.729C0.12,-0.747 0.143,-0.756 0.169,-0.756C0.196,-0.756 0.218,-0.747 0.237,-0.729C0.256,-0.712 0.266,-0.691 0.266,-0.666Z" style="fill:rgb(91,171,255);fill-rule:nonzero;"/>
                </g>
                <g transform="matrix(301.532,0,0,301.532,1402.69,660.236)">
                    <path d="M0.392,-0.022C0.371,-0.013 0.348,-0.005 0.325,0.002C0.301,0.01 0.272,0.013 0.238,0.013C0.187,0.013 0.149,0.001 0.125,-0.024C0.1,-0.049 0.088,-0.084 0.088,-0.13L0.088,-0.429L0,-0.429L0,-0.482L0.09,-0.482L0.09,-0.63L0.248,-0.63L0.248,-0.482L0.385,-0.482L0.385,-0.429L0.249,-0.429L0.249,-0.162C0.249,-0.124 0.254,-0.097 0.265,-0.081C0.276,-0.065 0.295,-0.057 0.322,-0.057C0.331,-0.057 0.343,-0.058 0.359,-0.059C0.374,-0.06 0.385,-0.062 0.392,-0.063L0.392,-0.022Z" style="fill:rgb(91,171,255);fill-rule:nonzero;"/>
                </g>
                <g transform="matrix(301.532,0,0,301.532,1522.54,660.236)">
                    <path d="M0.553,-0.117C0.542,-0.098 0.528,-0.081 0.512,-0.064C0.496,-0.048 0.478,-0.034 0.457,-0.022C0.435,-0.01 0.413,-0 0.391,0.006C0.369,0.012 0.343,0.016 0.314,0.016C0.266,0.016 0.224,0.009 0.189,-0.005C0.154,-0.019 0.125,-0.037 0.103,-0.06C0.08,-0.083 0.063,-0.11 0.052,-0.142C0.04,-0.173 0.035,-0.207 0.035,-0.244C0.035,-0.277 0.041,-0.309 0.053,-0.34C0.065,-0.37 0.083,-0.397 0.105,-0.421C0.127,-0.444 0.155,-0.463 0.189,-0.477C0.222,-0.491 0.26,-0.499 0.302,-0.499C0.347,-0.499 0.385,-0.493 0.414,-0.482C0.443,-0.471 0.468,-0.456 0.487,-0.436C0.505,-0.417 0.519,-0.396 0.527,-0.37C0.536,-0.345 0.54,-0.319 0.54,-0.291L0.54,-0.259L0.21,-0.259C0.21,-0.193 0.223,-0.142 0.249,-0.107C0.274,-0.072 0.315,-0.055 0.371,-0.055C0.402,-0.055 0.429,-0.063 0.454,-0.08C0.478,-0.097 0.499,-0.118 0.516,-0.144L0.553,-0.117ZM0.367,-0.302C0.367,-0.322 0.366,-0.342 0.364,-0.362C0.362,-0.383 0.358,-0.4 0.354,-0.413C0.348,-0.428 0.34,-0.439 0.331,-0.447C0.321,-0.455 0.309,-0.459 0.294,-0.459C0.269,-0.459 0.249,-0.446 0.234,-0.421C0.219,-0.396 0.211,-0.355 0.21,-0.3L0.367,-0.302Z" style="fill:rgb(91,171,255);fill-rule:nonzero;"/>
                </g>
                <g transform="matrix(301.532,0,0,301.532,1694.95,660.236)">
                    <path d="M0.254,0.017C0.223,0.017 0.192,0.012 0.162,0.003C0.132,-0.007 0.108,-0.016 0.092,-0.027L0.077,0.006L0.039,0.006L0.033,-0.176L0.068,-0.176C0.073,-0.161 0.081,-0.145 0.093,-0.126C0.104,-0.108 0.117,-0.091 0.132,-0.077C0.147,-0.062 0.165,-0.05 0.184,-0.04C0.204,-0.029 0.225,-0.024 0.248,-0.024C0.277,-0.024 0.299,-0.03 0.314,-0.042C0.328,-0.053 0.335,-0.071 0.335,-0.095C0.335,-0.108 0.332,-0.119 0.326,-0.127C0.319,-0.136 0.31,-0.143 0.299,-0.149C0.286,-0.156 0.272,-0.161 0.257,-0.166C0.242,-0.171 0.223,-0.176 0.201,-0.183C0.179,-0.189 0.16,-0.196 0.144,-0.202C0.128,-0.209 0.112,-0.22 0.095,-0.234C0.081,-0.247 0.069,-0.262 0.06,-0.28C0.051,-0.298 0.047,-0.319 0.047,-0.344C0.047,-0.39 0.066,-0.427 0.105,-0.455C0.143,-0.483 0.194,-0.498 0.256,-0.498C0.286,-0.498 0.313,-0.495 0.338,-0.489C0.363,-0.483 0.384,-0.476 0.401,-0.469L0.411,-0.498L0.448,-0.498L0.456,-0.331L0.422,-0.331C0.41,-0.365 0.391,-0.394 0.363,-0.419C0.336,-0.443 0.306,-0.456 0.274,-0.456C0.249,-0.456 0.229,-0.45 0.215,-0.44C0.201,-0.43 0.193,-0.415 0.193,-0.396C0.193,-0.372 0.204,-0.354 0.225,-0.343C0.246,-0.332 0.275,-0.321 0.313,-0.312C0.371,-0.297 0.414,-0.276 0.44,-0.25C0.467,-0.224 0.481,-0.191 0.481,-0.151C0.481,-0.098 0.46,-0.057 0.418,-0.027C0.376,0.002 0.322,0.017 0.254,0.017Z" style="fill:rgb(91,171,255);fill-rule:nonzero;"/>
                </g>
            </g>
        </g>
    </g>
    <defs>
        <radialGradient id="_Radial2" cx="0" cy="0" r="1" gradientUnits="userSpaceOnUse" gradientTransform="matrix(8.36356,75.1469,-167.161,18.6044,207.161,227.877)"><stop offset="0" style="stop-color:rgb(255,222,77);stop-opacity:1"/><stop offset="1" style="stop-color:rgb(255,222,77);stop-opacity:0"/></radialGradient>
    </defs>
</svg>
