<?xml version="1.0" encoding="UTF-8" standalone="no"?>
<!DOCTYPE svg PUBLIC "-//W3C//DTD SVG 1.1//EN" "http://www.w3.org/Graphics/SVG/1.1/DTD/svg11.dtd">
<svg width="100%" height="100%" viewBox="0 0 1024 1024" version="1.1" xmlns="http://www.w3.org/2000/svg" xmlns:xlink="http://www.w3.org/1999/xlink" xml:space="preserve" xmlns:serif="http://www.serif.com/" style="fill-rule:evenodd;clip-rule:evenodd;stroke-linejoin:round;stroke-miterlimit:2;">
    <g transform="matrix(4.83888,0,0,4.83888,-2472.41,-3372.17)">
        <path d="M630.431,698.84C621.354,697.645 612.16,697.645 603.083,698.84L614.338,784.323C612.732,784.535 611.16,784.956 609.664,785.576L576.668,705.918C568.21,709.421 560.248,714.018 552.985,719.591L605.473,787.995C604.188,788.981 603.038,790.132 602.051,791.417L533.648,738.929C528.075,746.192 523.478,754.154 519.974,762.612L599.632,795.607C599.012,797.104 598.591,798.675 598.38,800.281L512.896,789.027C511.701,798.104 511.701,807.298 512.896,816.374L598.38,805.12C598.591,806.726 599.012,808.298 599.632,809.794L519.974,842.79C523.478,851.248 528.075,859.21 533.648,866.473L602.051,813.985C603.038,815.27 604.188,816.42 605.473,817.406L552.985,885.81C560.248,891.383 568.21,895.98 576.668,899.484L609.664,819.826C611.16,820.446 612.732,820.867 614.338,821.078L603.083,906.562C612.16,907.757 621.354,907.757 630.431,906.562L619.176,821.078C620.782,820.867 622.354,820.446 623.85,819.826L656.846,899.484C665.304,895.98 673.266,891.383 680.529,885.81L628.041,817.406C629.326,816.42 630.476,815.27 631.463,813.985L699.866,866.473C705.439,859.21 710.037,851.248 713.54,842.79L633.882,809.794C634.502,808.298 634.923,806.726 635.134,805.12L720.618,816.374C721.813,807.298 721.813,798.104 720.618,789.027L635.134,800.281C634.923,798.675 634.502,797.104 633.882,795.607L713.54,762.612C710.037,754.154 705.439,746.192 699.866,738.929L631.463,791.417C630.476,790.132 629.326,788.981 628.041,787.995L680.529,719.591C673.266,714.018 665.304,709.421 656.846,705.918L623.85,785.576C622.354,784.956 620.782,784.535 619.176,784.323L630.431,698.84Z" style="fill:rgb(223,223,223);"/>
    </g>
    <g transform="matrix(27.2855,0,0,27.2429,-11779.6,-8021.46)">
        <g transform="matrix(12,0,0,12,432.123,307.724)">
            <path d="M0.269,-0.544L0.269,-0.153C0.269,-0.134 0.269,-0.116 0.269,-0.1C0.269,-0.084 0.269,-0.07 0.27,-0.057C0.27,-0.048 0.274,-0.043 0.282,-0.04L0.339,-0.023L0.34,0.001C0.3,0 0.252,-0 0.197,-0C0.14,-0 0.09,0 0.045,0.001L0.042,-0.023L0.108,-0.041C0.116,-0.044 0.121,-0.049 0.121,-0.056C0.121,-0.069 0.122,-0.084 0.122,-0.1C0.122,-0.116 0.122,-0.134 0.122,-0.153L0.122,-0.542C0.122,-0.559 0.122,-0.574 0.122,-0.587C0.122,-0.6 0.121,-0.612 0.121,-0.624C0.121,-0.632 0.117,-0.637 0.109,-0.64L0.044,-0.659L0.042,-0.684C0.088,-0.682 0.138,-0.682 0.193,-0.682C0.249,-0.682 0.297,-0.682 0.337,-0.684L0.34,-0.659L0.282,-0.642C0.274,-0.64 0.27,-0.635 0.27,-0.627C0.269,-0.615 0.269,-0.602 0.269,-0.588C0.269,-0.575 0.269,-0.56 0.269,-0.544ZM0.28,-0.341L0.48,-0.562C0.496,-0.579 0.508,-0.593 0.518,-0.605C0.527,-0.617 0.531,-0.627 0.531,-0.634C0.531,-0.64 0.527,-0.644 0.518,-0.647L0.476,-0.658L0.474,-0.684C0.509,-0.682 0.546,-0.682 0.587,-0.682C0.628,-0.682 0.666,-0.682 0.703,-0.684L0.705,-0.659L0.65,-0.644C0.634,-0.639 0.62,-0.631 0.609,-0.621C0.597,-0.611 0.585,-0.599 0.573,-0.585L0.405,-0.398L0.62,-0.083C0.631,-0.068 0.64,-0.058 0.648,-0.052C0.656,-0.045 0.666,-0.041 0.677,-0.038L0.725,-0.023L0.726,0.001C0.69,0 0.653,-0 0.614,-0C0.578,-0 0.54,0 0.499,0.001C0.489,-0.021 0.462,-0.064 0.419,-0.13L0.28,-0.341Z" style="fill:rgb(255,102,52);fill-rule:nonzero;"/>
        </g>
        <g transform="matrix(12,0,0,12,440.894,307.724)">
            <path d="M0.238,-0.63C0.238,-0.607 0.231,-0.589 0.216,-0.575C0.202,-0.561 0.183,-0.554 0.159,-0.554C0.138,-0.554 0.12,-0.561 0.106,-0.574C0.092,-0.587 0.085,-0.604 0.085,-0.625C0.085,-0.649 0.093,-0.667 0.107,-0.68C0.122,-0.694 0.141,-0.7 0.165,-0.7C0.186,-0.7 0.204,-0.694 0.217,-0.682C0.231,-0.67 0.238,-0.652 0.238,-0.63ZM0.023,-0.431C0.103,-0.443 0.173,-0.455 0.234,-0.468L0.239,-0.464C0.237,-0.419 0.236,-0.372 0.236,-0.321L0.236,-0.137C0.236,-0.098 0.237,-0.071 0.237,-0.056C0.238,-0.047 0.242,-0.041 0.25,-0.039L0.311,-0.022L0.312,0.001C0.264,0 0.216,-0 0.168,-0C0.12,-0 0.072,0 0.025,0.001L0.022,-0.022L0.084,-0.039C0.092,-0.041 0.096,-0.046 0.097,-0.054C0.097,-0.066 0.098,-0.088 0.098,-0.118L0.098,-0.275C0.098,-0.318 0.097,-0.357 0.096,-0.393L0.026,-0.411L0.023,-0.431Z" style="fill:rgb(255,102,52);fill-rule:nonzero;"/>
        </g>
        <g transform="matrix(12,0,0,12,444.873,307.724)">
            <path d="M0.221,-0.396C0.219,-0.294 0.218,-0.208 0.218,-0.137C0.218,-0.104 0.223,-0.082 0.233,-0.069C0.243,-0.057 0.263,-0.05 0.292,-0.05C0.314,-0.05 0.338,-0.052 0.364,-0.054L0.368,-0.025C0.316,0 0.268,0.013 0.223,0.013C0.177,0.013 0.142,0.004 0.117,-0.015C0.092,-0.034 0.08,-0.063 0.08,-0.102C0.08,-0.169 0.081,-0.268 0.083,-0.398L0.017,-0.415L0.012,-0.441L0.094,-0.449L0.14,-0.563C0.168,-0.568 0.193,-0.573 0.216,-0.578L0.223,-0.574C0.222,-0.535 0.221,-0.493 0.221,-0.449L0.358,-0.449L0.358,-0.396L0.221,-0.396Z" style="fill:rgb(255,102,52);fill-rule:nonzero;"/>
        </g>
        <g transform="matrix(12,0,0,12,449.549,307.724)">
            <path d="M0.319,-0.411C0.299,-0.416 0.277,-0.418 0.253,-0.418C0.223,-0.418 0.199,-0.413 0.18,-0.403C0.162,-0.392 0.152,-0.378 0.152,-0.358C0.152,-0.344 0.156,-0.332 0.165,-0.324C0.173,-0.316 0.187,-0.309 0.207,-0.302L0.285,-0.275C0.331,-0.259 0.365,-0.24 0.387,-0.217C0.408,-0.194 0.419,-0.168 0.419,-0.138C0.419,-0.09 0.399,-0.053 0.359,-0.026C0.318,0 0.266,0.014 0.2,0.014C0.146,0.014 0.092,0.002 0.039,-0.02C0.05,-0.064 0.059,-0.106 0.066,-0.147L0.091,-0.151L0.126,-0.044C0.146,-0.038 0.171,-0.034 0.201,-0.034C0.229,-0.034 0.252,-0.04 0.27,-0.05C0.288,-0.061 0.296,-0.076 0.296,-0.095C0.296,-0.111 0.291,-0.125 0.281,-0.135C0.27,-0.146 0.249,-0.157 0.217,-0.168L0.158,-0.188C0.12,-0.202 0.091,-0.219 0.072,-0.24C0.053,-0.262 0.043,-0.288 0.043,-0.319C0.043,-0.366 0.062,-0.403 0.099,-0.428C0.137,-0.454 0.188,-0.466 0.254,-0.466C0.308,-0.466 0.357,-0.458 0.4,-0.442C0.391,-0.4 0.382,-0.359 0.375,-0.321L0.349,-0.317L0.319,-0.411Z" style="fill:rgb(255,102,52);fill-rule:nonzero;"/>
        </g>
        <g transform="matrix(12,0,0,12,455.027,307.724)">
            <path d="M0.31,-0.217C0.259,-0.217 0.222,-0.211 0.201,-0.198C0.179,-0.185 0.168,-0.162 0.168,-0.131C0.168,-0.102 0.176,-0.082 0.191,-0.07C0.207,-0.057 0.225,-0.051 0.246,-0.051C0.27,-0.051 0.291,-0.057 0.309,-0.07L0.31,-0.217ZM0.071,-0.419C0.141,-0.451 0.207,-0.466 0.271,-0.466C0.33,-0.466 0.374,-0.453 0.403,-0.427C0.432,-0.401 0.447,-0.363 0.446,-0.314L0.444,-0.111C0.443,-0.094 0.444,-0.081 0.445,-0.071C0.446,-0.061 0.449,-0.053 0.454,-0.048C0.459,-0.042 0.466,-0.038 0.475,-0.036C0.484,-0.034 0.498,-0.033 0.515,-0.032L0.518,-0.01C0.472,0.006 0.433,0.014 0.4,0.014C0.356,0.014 0.327,-0.004 0.313,-0.039C0.272,-0.004 0.228,0.014 0.182,0.014C0.136,0.014 0.099,0.002 0.07,-0.02C0.041,-0.043 0.026,-0.075 0.026,-0.116C0.026,-0.167 0.05,-0.204 0.097,-0.228C0.144,-0.252 0.215,-0.264 0.31,-0.264L0.311,-0.3C0.311,-0.335 0.302,-0.361 0.285,-0.377C0.268,-0.394 0.242,-0.402 0.206,-0.402C0.172,-0.402 0.132,-0.395 0.085,-0.38L0.071,-0.419Z" style="fill:rgb(255,102,52);fill-rule:nonzero;"/>
        </g>
        <g transform="matrix(12,0,0,12,461.455,307.724)">
            <path d="M0.016,-0.411L0.013,-0.431C0.088,-0.442 0.157,-0.454 0.22,-0.468L0.227,-0.464L0.227,-0.418C0.278,-0.45 0.326,-0.466 0.373,-0.466C0.434,-0.466 0.483,-0.446 0.519,-0.406C0.555,-0.365 0.573,-0.312 0.573,-0.247C0.573,-0.166 0.547,-0.102 0.497,-0.056C0.446,-0.009 0.379,0.014 0.296,0.014C0.274,0.014 0.251,0.011 0.227,0.007L0.227,0.11C0.227,0.142 0.227,0.165 0.228,0.178C0.229,0.188 0.233,0.194 0.241,0.196L0.31,0.214L0.312,0.237C0.257,0.236 0.207,0.236 0.159,0.236C0.11,0.236 0.063,0.236 0.016,0.237L0.013,0.214L0.075,0.197C0.083,0.195 0.087,0.19 0.087,0.182C0.088,0.158 0.088,0.122 0.088,0.074L0.088,-0.121C0.088,-0.263 0.087,-0.354 0.086,-0.393L0.016,-0.411ZM0.227,-0.042C0.25,-0.037 0.272,-0.035 0.293,-0.035C0.336,-0.035 0.368,-0.051 0.391,-0.084C0.413,-0.117 0.424,-0.164 0.424,-0.225C0.424,-0.283 0.413,-0.326 0.393,-0.356C0.372,-0.385 0.342,-0.4 0.302,-0.4C0.274,-0.4 0.249,-0.395 0.227,-0.384L0.227,-0.042Z" style="fill:rgb(255,102,52);fill-rule:nonzero;"/>
        </g>
    </g>
    <g transform="matrix(15.1612,0,0,15.1612,-4371.38,-9646.77)">
        <g transform="matrix(12,0,0,12,288.082,684.849)">
            <path d="M0.585,-0.499L0.558,-0.495L0.521,-0.635C0.495,-0.643 0.467,-0.647 0.438,-0.647C0.366,-0.647 0.31,-0.62 0.271,-0.566C0.231,-0.512 0.211,-0.442 0.211,-0.354C0.211,-0.261 0.235,-0.187 0.281,-0.132C0.327,-0.076 0.392,-0.049 0.474,-0.049C0.52,-0.049 0.568,-0.058 0.619,-0.077L0.625,-0.049C0.56,-0.005 0.487,0.018 0.405,0.018C0.298,0.018 0.212,-0.014 0.147,-0.079C0.081,-0.143 0.048,-0.227 0.048,-0.332C0.048,-0.444 0.084,-0.532 0.156,-0.597C0.228,-0.662 0.322,-0.695 0.438,-0.695C0.495,-0.695 0.554,-0.688 0.614,-0.675L0.617,-0.67L0.585,-0.499Z" style="fill:rgb(255,102,52);fill-rule:nonzero;"/>
        </g>
        <g transform="matrix(12,0,0,12,295.851,684.849)">
            <path d="M0.19,-0.232C0.19,-0.173 0.199,-0.125 0.217,-0.088C0.235,-0.051 0.263,-0.032 0.302,-0.032C0.339,-0.032 0.365,-0.049 0.383,-0.081C0.4,-0.114 0.408,-0.162 0.408,-0.226C0.408,-0.286 0.399,-0.334 0.381,-0.368C0.363,-0.403 0.335,-0.42 0.296,-0.42C0.261,-0.42 0.234,-0.405 0.217,-0.374C0.199,-0.342 0.19,-0.295 0.19,-0.232ZM0.56,-0.236C0.56,-0.162 0.535,-0.101 0.485,-0.055C0.436,-0.009 0.371,0.014 0.292,0.014C0.215,0.014 0.153,-0.008 0.107,-0.052C0.062,-0.095 0.039,-0.152 0.039,-0.222C0.039,-0.293 0.063,-0.352 0.111,-0.398C0.159,-0.443 0.224,-0.466 0.306,-0.466C0.384,-0.466 0.446,-0.445 0.491,-0.403C0.537,-0.361 0.56,-0.305 0.56,-0.236Z" style="fill:rgb(255,102,52);fill-rule:nonzero;"/>
        </g>
        <g transform="matrix(12,0,0,12,303.035,684.849)">
            <path d="M0.848,-0.146C0.848,-0.105 0.848,-0.075 0.849,-0.056C0.849,-0.047 0.854,-0.041 0.862,-0.039L0.921,-0.022L0.922,0.001C0.876,0 0.829,-0 0.782,-0C0.733,-0 0.69,0 0.653,0.001L0.65,-0.022L0.697,-0.037C0.704,-0.039 0.708,-0.044 0.709,-0.051C0.709,-0.056 0.709,-0.066 0.709,-0.082L0.709,-0.287C0.709,-0.327 0.702,-0.355 0.687,-0.373C0.672,-0.39 0.65,-0.399 0.621,-0.399C0.594,-0.399 0.566,-0.389 0.536,-0.371C0.54,-0.355 0.542,-0.337 0.542,-0.317L0.542,-0.146C0.542,-0.105 0.543,-0.075 0.543,-0.054C0.544,-0.045 0.548,-0.04 0.555,-0.038L0.604,-0.022L0.604,0.001C0.566,0 0.523,-0 0.476,-0C0.427,-0 0.384,0 0.347,0.001L0.345,-0.022L0.391,-0.037C0.399,-0.039 0.403,-0.044 0.403,-0.051C0.404,-0.056 0.404,-0.066 0.404,-0.082L0.404,-0.287C0.404,-0.327 0.396,-0.355 0.382,-0.373C0.367,-0.39 0.345,-0.399 0.315,-0.399C0.29,-0.399 0.264,-0.391 0.236,-0.375L0.236,-0.166C0.236,-0.125 0.237,-0.088 0.237,-0.054C0.238,-0.045 0.241,-0.04 0.249,-0.038L0.297,-0.022L0.298,0.001C0.259,0 0.216,-0 0.168,-0C0.12,-0 0.072,0 0.025,0.001L0.023,-0.022L0.086,-0.039C0.093,-0.041 0.097,-0.046 0.097,-0.054C0.097,-0.075 0.098,-0.095 0.098,-0.114L0.098,-0.274C0.098,-0.317 0.097,-0.356 0.096,-0.393L0.026,-0.411L0.023,-0.431C0.098,-0.442 0.167,-0.454 0.229,-0.468L0.236,-0.464L0.236,-0.412C0.29,-0.448 0.342,-0.466 0.395,-0.466C0.454,-0.466 0.497,-0.445 0.523,-0.402C0.583,-0.445 0.643,-0.466 0.7,-0.466C0.746,-0.466 0.782,-0.453 0.809,-0.427C0.835,-0.402 0.848,-0.365 0.848,-0.317L0.848,-0.146Z" style="fill:rgb(255,102,52);fill-rule:nonzero;"/>
        </g>
        <g transform="matrix(12,0,0,12,314.267,684.849)">
            <path d="M0.016,-0.411L0.013,-0.431C0.088,-0.442 0.157,-0.454 0.22,-0.468L0.227,-0.464L0.227,-0.418C0.278,-0.45 0.326,-0.466 0.373,-0.466C0.434,-0.466 0.483,-0.446 0.519,-0.406C0.555,-0.365 0.573,-0.312 0.573,-0.247C0.573,-0.166 0.547,-0.102 0.497,-0.056C0.446,-0.009 0.379,0.014 0.296,0.014C0.274,0.014 0.251,0.011 0.227,0.007L0.227,0.11C0.227,0.142 0.227,0.165 0.228,0.178C0.229,0.188 0.233,0.194 0.241,0.196L0.31,0.214L0.312,0.237C0.257,0.236 0.207,0.236 0.159,0.236C0.11,0.236 0.063,0.236 0.016,0.237L0.013,0.214L0.075,0.197C0.083,0.195 0.087,0.19 0.087,0.182C0.088,0.158 0.088,0.122 0.088,0.074L0.088,-0.121C0.088,-0.263 0.087,-0.354 0.086,-0.393L0.016,-0.411ZM0.227,-0.042C0.25,-0.037 0.272,-0.035 0.293,-0.035C0.336,-0.035 0.368,-0.051 0.391,-0.084C0.413,-0.117 0.424,-0.164 0.424,-0.225C0.424,-0.283 0.413,-0.326 0.393,-0.356C0.372,-0.385 0.342,-0.4 0.302,-0.4C0.274,-0.4 0.249,-0.395 0.227,-0.384L0.227,-0.042Z" style="fill:rgb(255,102,52);fill-rule:nonzero;"/>
        </g>
        <g transform="matrix(12,0,0,12,321.603,684.849)">
            <path d="M0.19,-0.232C0.19,-0.173 0.199,-0.125 0.217,-0.088C0.235,-0.051 0.263,-0.032 0.302,-0.032C0.339,-0.032 0.365,-0.049 0.383,-0.081C0.4,-0.114 0.408,-0.162 0.408,-0.226C0.408,-0.286 0.399,-0.334 0.381,-0.368C0.363,-0.403 0.335,-0.42 0.296,-0.42C0.261,-0.42 0.234,-0.405 0.217,-0.374C0.199,-0.342 0.19,-0.295 0.19,-0.232ZM0.56,-0.236C0.56,-0.162 0.535,-0.101 0.485,-0.055C0.436,-0.009 0.371,0.014 0.292,0.014C0.215,0.014 0.153,-0.008 0.107,-0.052C0.062,-0.095 0.039,-0.152 0.039,-0.222C0.039,-0.293 0.063,-0.352 0.111,-0.398C0.159,-0.443 0.224,-0.466 0.306,-0.466C0.384,-0.466 0.446,-0.445 0.491,-0.403C0.537,-0.361 0.56,-0.305 0.56,-0.236Z" style="fill:rgb(255,102,52);fill-rule:nonzero;"/>
        </g>
        <g transform="matrix(12,0,0,12,328.787,684.849)">
            <path d="M0.319,-0.411C0.299,-0.416 0.277,-0.418 0.253,-0.418C0.223,-0.418 0.199,-0.413 0.18,-0.403C0.162,-0.392 0.152,-0.378 0.152,-0.358C0.152,-0.344 0.156,-0.332 0.165,-0.324C0.173,-0.316 0.187,-0.309 0.207,-0.302L0.285,-0.275C0.331,-0.259 0.365,-0.24 0.387,-0.217C0.408,-0.194 0.419,-0.168 0.419,-0.138C0.419,-0.09 0.399,-0.053 0.359,-0.026C0.318,0 0.266,0.014 0.2,0.014C0.146,0.014 0.092,0.002 0.039,-0.02C0.05,-0.064 0.059,-0.106 0.066,-0.147L0.091,-0.151L0.126,-0.044C0.146,-0.038 0.171,-0.034 0.201,-0.034C0.229,-0.034 0.252,-0.04 0.27,-0.05C0.288,-0.061 0.296,-0.076 0.296,-0.095C0.296,-0.111 0.291,-0.125 0.281,-0.135C0.27,-0.146 0.249,-0.157 0.217,-0.168L0.158,-0.188C0.12,-0.202 0.091,-0.219 0.072,-0.24C0.053,-0.262 0.043,-0.288 0.043,-0.319C0.043,-0.366 0.062,-0.403 0.099,-0.428C0.137,-0.454 0.188,-0.466 0.254,-0.466C0.308,-0.466 0.357,-0.458 0.4,-0.442C0.391,-0.4 0.382,-0.359 0.375,-0.321L0.349,-0.317L0.319,-0.411Z" style="fill:rgb(255,102,52);fill-rule:nonzero;"/>
        </g>
        <g transform="matrix(12,0,0,12,334.265,684.849)">
            <path d="M0.238,-0.63C0.238,-0.607 0.231,-0.589 0.216,-0.575C0.202,-0.561 0.183,-0.554 0.159,-0.554C0.138,-0.554 0.12,-0.561 0.106,-0.574C0.092,-0.587 0.085,-0.604 0.085,-0.625C0.085,-0.649 0.093,-0.667 0.107,-0.68C0.122,-0.694 0.141,-0.7 0.165,-0.7C0.186,-0.7 0.204,-0.694 0.217,-0.682C0.231,-0.67 0.238,-0.652 0.238,-0.63ZM0.023,-0.431C0.103,-0.443 0.173,-0.455 0.234,-0.468L0.239,-0.464C0.237,-0.419 0.236,-0.372 0.236,-0.321L0.236,-0.137C0.236,-0.098 0.237,-0.071 0.237,-0.056C0.238,-0.047 0.242,-0.041 0.25,-0.039L0.311,-0.022L0.312,0.001C0.264,0 0.216,-0 0.168,-0C0.12,-0 0.072,0 0.025,0.001L0.022,-0.022L0.084,-0.039C0.092,-0.041 0.096,-0.046 0.097,-0.054C0.097,-0.066 0.098,-0.088 0.098,-0.118L0.098,-0.275C0.098,-0.318 0.097,-0.357 0.096,-0.393L0.026,-0.411L0.023,-0.431Z" style="fill:rgb(255,102,52);fill-rule:nonzero;"/>
        </g>
        <g transform="matrix(12,0,0,12,338.244,684.849)">
            <path d="M0.221,-0.396C0.219,-0.294 0.218,-0.208 0.218,-0.137C0.218,-0.104 0.223,-0.082 0.233,-0.069C0.243,-0.057 0.263,-0.05 0.292,-0.05C0.314,-0.05 0.338,-0.052 0.364,-0.054L0.368,-0.025C0.316,0 0.268,0.013 0.223,0.013C0.177,0.013 0.142,0.004 0.117,-0.015C0.092,-0.034 0.08,-0.063 0.08,-0.102C0.08,-0.169 0.081,-0.268 0.083,-0.398L0.017,-0.415L0.012,-0.441L0.094,-0.449L0.14,-0.563C0.168,-0.568 0.193,-0.573 0.216,-0.578L0.223,-0.574C0.222,-0.535 0.221,-0.493 0.221,-0.449L0.358,-0.449L0.358,-0.396L0.221,-0.396Z" style="fill:rgb(255,102,52);fill-rule:nonzero;"/>
        </g>
        <g transform="matrix(12,0,0,12,342.738,684.849)">
            <path d="M0.499,-0.032C0.439,-0.002 0.375,0.014 0.309,0.014C0.229,0.014 0.164,-0.006 0.114,-0.045C0.064,-0.084 0.039,-0.142 0.039,-0.219C0.039,-0.292 0.063,-0.351 0.111,-0.397C0.159,-0.443 0.221,-0.466 0.296,-0.466C0.361,-0.466 0.412,-0.449 0.448,-0.413C0.483,-0.378 0.501,-0.329 0.501,-0.267C0.501,-0.258 0.5,-0.248 0.5,-0.238L0.188,-0.238C0.188,-0.172 0.204,-0.125 0.236,-0.097C0.268,-0.068 0.32,-0.054 0.394,-0.054C0.429,-0.054 0.463,-0.057 0.495,-0.063L0.499,-0.032ZM0.353,-0.285L0.353,-0.297C0.353,-0.341 0.347,-0.373 0.336,-0.392C0.324,-0.411 0.307,-0.421 0.284,-0.421C0.257,-0.421 0.234,-0.408 0.218,-0.381C0.202,-0.355 0.192,-0.323 0.189,-0.285L0.353,-0.285Z" style="fill:rgb(255,102,52);fill-rule:nonzero;"/>
        </g>
        <g transform="matrix(12,0,0,12,349.189,684.849)">
            <path d="M0.319,-0.411C0.299,-0.416 0.277,-0.418 0.253,-0.418C0.223,-0.418 0.199,-0.413 0.18,-0.403C0.162,-0.392 0.152,-0.378 0.152,-0.358C0.152,-0.344 0.156,-0.332 0.165,-0.324C0.173,-0.316 0.187,-0.309 0.207,-0.302L0.285,-0.275C0.331,-0.259 0.365,-0.24 0.387,-0.217C0.408,-0.194 0.419,-0.168 0.419,-0.138C0.419,-0.09 0.399,-0.053 0.359,-0.026C0.318,0 0.266,0.014 0.2,0.014C0.146,0.014 0.092,0.002 0.039,-0.02C0.05,-0.064 0.059,-0.106 0.066,-0.147L0.091,-0.151L0.126,-0.044C0.146,-0.038 0.171,-0.034 0.201,-0.034C0.229,-0.034 0.252,-0.04 0.27,-0.05C0.288,-0.061 0.296,-0.076 0.296,-0.095C0.296,-0.111 0.291,-0.125 0.281,-0.135C0.27,-0.146 0.249,-0.157 0.217,-0.168L0.158,-0.188C0.12,-0.202 0.091,-0.219 0.072,-0.24C0.053,-0.262 0.043,-0.288 0.043,-0.319C0.043,-0.366 0.062,-0.403 0.099,-0.428C0.137,-0.454 0.188,-0.466 0.254,-0.466C0.308,-0.466 0.357,-0.458 0.4,-0.442C0.391,-0.4 0.382,-0.359 0.375,-0.321L0.349,-0.317L0.319,-0.411Z" style="fill:rgb(255,102,52);fill-rule:nonzero;"/>
        </g>
    </g>
    <g transform="matrix(1,0,0,1,-43.059,-156.258)">
        <circle cx="555.059" cy="668.258" r="96.991" style="fill:rgb(251,175,65);"/>
    </g>
</svg>
